<svg version="1.1" xmlns="http://www.w3.org/2000/svg" viewBox="0 0 630 561.595703125" width="1260" height="1123.19140625" filter="invert(93%) hue-rotate(180deg)">
  <!-- svg-source:excalidraw -->
  
  <defs>
    <style>
      @font-face {
        font-family: "Virgil";
        src: url("https://excalidraw.com/Virgil.woff2");
      }
      @font-face {
        font-family: "Cascadia";
        src: url("https://excalidraw.com/Cascadia.woff2");
      }
    </style>
  </defs>
  <rect x="0" y="0" width="630" height="561.595703125" fill="#ffffff"></rect><g stroke-linecap="round" transform="translate(10 10) rotate(0 305 152.5)"><path d="M0.36 0.65 C174.25 -1.01, 347.25 -1.45, 610.79 0.29 M-0.09 0.21 C139.95 -1.71, 280.01 -1.42, 609.99 0.13 M610.46 -1.33 C611.1 67.23, 609.66 133.54, 610.63 304.55 M609.82 0.04 C608.97 62.7, 609.64 124.56, 610.02 305.01 M610.5 304.69 C394.2 305.13, 178.23 304.65, -0.27 305.08 M610.38 304.69 C416.42 307.24, 222.04 307.17, -0.33 305.14 M0.96 305.04 C1.61 189.85, -0.69 74.25, 0.58 0.02 M-0.27 304.35 C0.95 187.99, -0.15 72.67, 0.42 -0.33" stroke="#000000" stroke-width="1" fill="none"></path></g><g transform="translate(15 15) rotate(0 300 17.5)"><text x="300" y="25" font-family="Virgil, Segoe UI Emoji" font-size="28px" fill="#000000" text-anchor="middle" style="white-space: pre;" direction="ltr">Kamaji Admin Cluster</text></g><g stroke-linecap="round" transform="translate(181.2109375 94.65625) rotate(0 118 45)"><path d="M0 0 C0 0, 0 0, 0 0 M0 0 C0 0, 0 0, 0 0 M0.02 6.21 C0.43 6.02, 2.47 2.52, 5.19 -0.06 M0.18 5.82 C1.27 5.32, 2.92 3.98, 5.12 1.01 M-1.61 9.72 C-0.3 6.58, 2 7.98, 10.42 -0.24 M-0.58 12.22 C4.46 7.66, 5.57 6.39, 11.69 -0.92 M3.16 21.63 C6.7 17.02, 8.29 8, 16.1 -2.25 M1.12 17.16 C5.75 12.12, 9.32 6.46, 13.71 2.01 M-2.35 27.15 C5.5 18.78, 15.13 9.46, 20.89 1.52 M2.09 22.54 C7.78 18.03, 15.43 8.75, 22.59 0.05 M0.43 31.89 C7.53 21.34, 7.99 19.86, 24.72 3.19 M1.58 28.74 C9.81 18.65, 16.8 11.25, 25.17 1.14 M-2.18 35.85 C7.15 27.35, 14.35 20.15, 27.89 1.59 M1.66 38.85 C9.23 22.64, 22.97 11.89, 32.18 -0.33 M-1.11 39.74 C7.03 32.29, 25.13 16.32, 39.24 0.91 M1.47 41.73 C10.78 30.12, 21.55 16.68, 35.59 1.01 M-1.12 47.81 C14.83 38.74, 20.8 22.84, 42.69 1.25 M1.52 48.94 C9.71 37.07, 19.01 29.33, 42.14 0.1 M1.13 51.26 C8.05 39.15, 24.13 28.91, 45.45 -2.7 M0.58 54.15 C16.77 34.71, 37.26 10.76, 46.4 -1.75 M1.24 58.89 C15.1 43.77, 22.43 33.7, 52.56 0.91 M0.81 61.83 C12.23 45.09, 26.96 29.27, 52.39 1.7 M1.01 64.38 C14.57 54.61, 22.63 33.75, 59.09 -0.22 M0.57 66.72 C17.22 50.01, 34.13 27.25, 58.55 -1.56 M3.88 73.28 C17.25 54.38, 29.67 41.53, 64.71 -3.98 M-1.15 74.72 C18.51 49.44, 40.33 21.97, 63.4 0.79 M-1.7 77.8 C26.74 54.16, 47.31 29.69, 65.84 -3.15 M1.58 77.89 C25.37 51.84, 49.75 25.71, 70.52 2.15 M-0.28 84.22 C25.37 55.36, 54.87 24.01, 78.28 -2.87 M0.51 83.8 C23.89 52.51, 51.14 24.67, 74.17 -0.35 M-0.62 90.79 C15.04 68.48, 40.8 48.81, 81.31 2.07 M0.99 89.57 C26.08 59.78, 51.96 27.7, 80.32 -1.11 M9.53 87.25 C31.82 64.4, 54.98 33.06, 88.34 1.81 M8.08 91.42 C34.57 56.82, 64 23.99, 84.23 0.55 M7.78 87.13 C30.83 68.62, 49.63 42.97, 91.04 2.07 M9.88 89.07 C36.76 66.48, 57.84 37.06, 91.5 1.16 M16.8 91.23 C33.58 62.51, 56.71 43.73, 97.93 -1.26 M18.17 91.21 C42.82 61.67, 68.43 29.81, 95.65 -0.28 M23.91 87.54 C46.42 64.74, 66.25 36.75, 102.54 0.53 M22.87 91.58 C43.04 69.79, 63.8 42.54, 99.14 -1.57 M23.02 94.63 C42.49 76.06, 61.71 54.97, 106 3.61 M26.98 90.3 C44.66 67.78, 65.86 47.19, 107.01 1.35 M30 88.49 C62.69 62.5, 84.59 30.02, 109.21 -1.81 M32.9 88.91 C61.93 56.13, 92.87 21.53, 111.85 -0.88 M38.17 93.45 C65.94 51.88, 92.76 22.38, 118.78 -0.04 M38.8 91.23 C57.76 65.88, 76.02 42.37, 114.78 0.36 M40.18 93.51 C70.55 58.67, 96.63 28.91, 118.42 -3.13 M43.49 90.85 C61.05 72.58, 74.35 51.63, 121.76 0.63 M44.21 87.01 C69.86 62.46, 96.92 37.24, 124.41 4.12 M47.5 91.79 C65.06 71.76, 80.02 53.34, 125.93 1.38 M56.54 93.19 C79.36 60.96, 104.97 34.56, 131.48 3.44 M54.65 91.17 C84.62 56.56, 111.59 22.22, 134.54 -0.66 M57.69 86.91 C86.43 65.56, 106.04 31.88, 141.01 1.76 M57.11 91.96 C75.3 73.11, 94.72 53.23, 135.99 1.26 M65.08 93.18 C91.39 61.91, 113.13 32.03, 139.62 1.83 M64.96 89.59 C88.25 61.32, 115.74 32.4, 143.4 0.57 M69.1 89.86 C92.09 56.38, 117.12 32.8, 151.29 -3.16 M71.23 92.7 C91.76 64.12, 118.58 35.14, 149.67 0.08 M71.78 94.2 C92.74 71.68, 108.9 50.22, 152.01 -2.96 M73.5 89.8 C88.27 69.82, 104.68 52.69, 155.06 0.64 M78.87 89.58 C100.6 69.44, 128.55 45.39, 161.89 0.38 M78.94 89.96 C98.38 73.23, 114.09 55.28, 158.23 -0.12 M82.51 88.03 C109.17 63.6, 127.2 44.05, 167.77 3.13 M85.89 89.48 C111 57.25, 140.86 28.87, 163.8 0.83 M93.34 88.9 C115.44 56.41, 148.16 24.62, 167.39 2.48 M88.9 92.63 C118.35 58.23, 148.87 24.41, 169.44 -1.34 M99.12 93.5 C111.54 69.7, 133 49.59, 171.95 -0.79 M96.3 90.26 C125.64 56.11, 157.42 20.57, 173.41 1.36 M104.83 87.69 C120.69 64.29, 145.21 38.76, 178.3 0.29 M103.27 92.58 C123.91 65.52, 143.71 41.09, 181.62 0.41 M107.37 88.52 C126.32 76.93, 138.42 52.69, 187.53 -2.51 M105.41 91.74 C134.35 57.87, 162.82 23.32, 187.21 -0.53 M111.58 86.88 C144.88 54.46, 168.65 18.61, 193.09 2.03 M111.76 90.64 C141.16 56.73, 166.91 26.21, 189.61 1.07 M120.96 94.06 C151.25 60.84, 174.94 19.9, 199.44 -0.81 M118.43 89.49 C133.46 72.13, 146.64 52.95, 198.07 -0.68 M121.75 92.46 C147.25 60.34, 179.22 27.07, 202.15 -1.03 M121.6 90.62 C146.89 57.7, 173.28 29.94, 202.77 -1.44 M129.55 90.14 C158.05 58.47, 184.88 24.68, 206.54 -1.36 M127.11 89.06 C148.58 66.61, 166.2 44.37, 206.37 -1.93 M133.46 87.5 C158.65 70.08, 172.74 40.11, 215.81 1.46 M131.54 89.3 C154.6 70.13, 172.81 47.75, 211.03 -1.25 M142.05 92.61 C168.5 60.52, 192.21 31.67, 217.63 3.21 M139.08 92.7 C163.57 64.78, 188.72 34.36, 218.03 -0.17 M146.75 92.12 C168 60.28, 195.18 25.71, 220.33 2.89 M141.9 90.42 C175.99 54.22, 208.22 20.09, 222.8 1.52 M145.29 90.12 C166.24 66.45, 182.51 50.44, 231.46 -2.68 M150.46 90.39 C165.75 68.59, 187.11 44.15, 226.5 -2.3 M151.63 87.5 C180.32 65.74, 201.34 34.94, 229.93 -0.26 M152.49 90.69 C170.14 73.85, 185.55 53.26, 235.07 -1.34 M160.09 92.63 C173.39 72.34, 196.17 50.34, 239.37 3.98 M159.94 90.32 C185.18 59.17, 215.61 25.58, 237.46 1.24 M164 91.9 C181.5 71.43, 193.15 61.93, 236.19 11.08 M164.67 89.8 C192.72 59.7, 218.34 27.04, 236.76 7.54 M167.82 92.42 C190.3 70.71, 209.74 43.39, 240.11 14.82 M169.39 89.92 C196.55 57.8, 221.47 29.89, 237.55 12.53 M173.74 92.61 C200.82 67.38, 219.24 45.17, 235.8 16.48 M175.33 92.39 C196.32 66.06, 213.67 46.37, 238.53 18.87 M177.83 92.84 C198.72 70.19, 217.83 52.72, 234.76 23.64 M181.21 90.56 C200.12 69.19, 219.74 44.79, 235.34 25.75 M188.64 90.02 C200 79.82, 211.88 63.77, 234.73 33.07 M186.89 90.08 C206.16 69.42, 222.78 49.16, 238.88 31.87 M191.37 88.28 C204.47 79.21, 215.34 60.07, 239.12 41.62 M192.35 91.61 C202.99 78.68, 216.69 62.67, 235.71 36.36 M198.44 93.55 C211.01 71.92, 226.21 55.19, 238.94 45.56 M197.31 91.47 C210.71 75.36, 220.03 63.26, 236.9 42.23 M205.66 92.22 C216.12 77.68, 224.41 65.2, 236.96 47.25 M200.26 92.38 C213.78 79.97, 220.88 67.24, 239.13 49.04 M210.82 93.71 C221.05 78.77, 229.44 65.07, 237.66 54.49 M206.06 92.1 C213.84 80.35, 220.45 75.92, 237.56 56.37 M209.84 93.17 C220.06 77.77, 232.56 74.76, 234.64 59.36 M212.95 90.15 C219.51 84.97, 224.4 76.73, 238.23 60.7 M215.38 90.05 C223.27 79.84, 231.48 72.37, 234.03 69.18 M220.16 88.5 C225.97 81.36, 232.46 72.14, 236.33 70.41 M220.98 90.74 C227.37 85.24, 231.48 84.04, 240.45 77.8 M222.95 90.2 C228.91 85.37, 232.88 80.66, 239.18 75.19 M228.1 88.29 C229.92 87.66, 233.7 86.3, 237.25 82.97 M228.42 91.52 C232.1 87.04, 233.72 84.65, 237.3 80.65 M233.44 90.9 C234.5 90.23, 236.48 88.73, 236.87 87.25 M233.74 90.95 C234.53 89.12, 236.11 88.68, 237.62 86.71" stroke="#fff" stroke-width="0.5" fill="none"></path><path d="M-0.12 1.86 C51.33 -3.58, 105.46 -0.96, 233.17 0.19 M1.27 -0.88 C52.95 1.65, 109.39 0.87, 236.79 1.24 M232.28 3.13 C231.88 21.34, 232.2 42.85, 232.93 92.97 M235.07 0.04 C235.78 34.1, 235.52 71.7, 234.17 89.06 M235.44 86.71 C146.46 89.64, 61.74 91.05, -0.23 87.26 M236.33 91.11 C153.3 92.67, 73.32 92.89, 1.01 90.03 M1.95 92.49 C-0.03 72.76, -1.33 46.29, -3.34 -0.82 M0.45 91.7 C0 58.09, 2.5 25.61, 1.31 -0.01" stroke="#000000" stroke-width="1" fill="none"></path></g><g transform="translate(186.2109375 114.65625) rotate(0 113 25)"><text x="113" y="18" font-family="Virgil, Segoe UI Emoji" font-size="20px" fill="#000000" text-anchor="middle" style="white-space: pre;" direction="ltr">Multi-tenant</text><text x="113" y="43" font-family="Virgil, Segoe UI Emoji" font-size="20px" fill="#000000" text-anchor="middle" style="white-space: pre;" direction="ltr">etcd</text></g><g stroke-linecap="round" transform="translate(37.68359375 239.46875) rotate(0 52 35)"><path d="M0 0 C0 0, 0 0, 0 0 M0 0 C0 0, 0 0, 0 0 M0.49 6.15 C1.75 3.88, 2.96 2.66, 4.87 0.12 M0 6.72 C1.02 4.83, 2.06 3.55, 4.61 0.58 M0.55 11.62 C2.23 7.52, 6.19 6.79, 9.59 0.79 M0.6 11.97 C3.05 9.04, 6.19 4.9, 10.99 -0.35 M-0.1 20.16 C1.88 14.85, 6.02 8.85, 13.92 -0.8 M-0.26 18.21 C5.84 12.66, 10.87 6.77, 15 -0.35 M2.27 26.04 C7.29 16.62, 12.96 9.58, 21.96 1.21 M0.86 24.47 C8.02 16.99, 13.25 8.55, 20.89 0.25 M-0.83 31.21 C7.27 19.43, 14.57 9.27, 26.2 1.73 M0.4 29.64 C8.37 19.33, 18.61 9.29, 25.8 1.24 M-0.62 36.8 C10.95 22.05, 22.96 9.69, 32.26 0 M-0.53 37.84 C7.36 28.4, 14.04 18.88, 32.36 0.41 M1.41 44 C12.02 30.99, 19.32 20.45, 37.66 -1.47 M0.4 41.89 C11.09 29.76, 20.51 18.28, 36.82 -0.36 M-0.19 49.05 C12.53 33.04, 25.41 19.3, 43.38 -0.24 M0.04 49.69 C12.93 33.55, 24.4 19.5, 42.7 0.02 M0.13 56.56 C11.95 41.61, 22.8 30.3, 48.95 0.74 M0.77 54.11 C12.71 38.86, 25.56 24.42, 46.86 0.07 M1.93 62.31 C18.34 41.53, 37.68 20.44, 51.98 -2.16 M0.54 61.19 C12.36 46.55, 24.52 32.17, 53.1 0.81 M1.72 66.63 C17.75 43.42, 36.84 23.17, 59.26 1.45 M-0.15 67.97 C18.88 45.61, 39.01 23.36, 58.25 0.01 M0.61 71.81 C24.98 45.29, 52.47 14.06, 62.27 0.6 M2.4 71.48 C18.16 52.44, 34.78 33.09, 63.74 -0.74 M5.3 70.36 C27.26 52.19, 44.31 31.25, 68.3 1.73 M6.16 71.34 C21.14 53.79, 35.35 38.77, 69.76 0.2 M13.82 73.18 C29.57 52.7, 44.92 35.77, 75.97 1.33 M12.1 71.47 C28.75 52.27, 46.5 32.39, 74.79 -0.37 M18.36 69.96 C35.73 53.64, 51.81 34.3, 78.32 0.64 M17.08 70.94 C31.62 54.44, 47.9 36.52, 79.7 -0.32 M21 71.65 C41.9 50.49, 61.6 26.15, 86.36 -1.69 M22.56 71.9 C37.22 54.62, 50.66 39.14, 85.37 -1.05 M29.28 71.12 C49.43 45.6, 69.88 23.51, 88.11 1.17 M28.29 70.75 C41.26 54.69, 53.51 39.79, 90.8 0.7 M35.3 69.87 C50.46 51.41, 68 34.66, 96.22 0.79 M34.34 72.26 C55.79 45.77, 77.85 19.85, 96.64 -0.01 M39.22 70.7 C54.78 52.89, 73.45 32.28, 98.98 0.3 M38.73 70.76 C56.5 53.07, 70.97 34.29, 101.33 -0.17 M44.4 72.42 C67.44 45.77, 89.13 18.93, 106.58 0.49 M43.5 72.27 C56.81 57.19, 69.08 42.28, 105.38 1.84 M48.23 71.28 C72.01 47.9, 90.18 25.87, 106.86 5.78 M49.67 72.45 C64.73 53.86, 81.33 36.46, 106.1 7.66 M56.53 71.89 C65.09 57.5, 76.59 46.38, 105.42 11.64 M54.59 70.94 C73.41 51.04, 89.56 30.25, 105.82 12.85 M59.86 72.18 C76.15 52.75, 89.45 33.16, 104.78 19.77 M60.33 70.83 C69.89 60.45, 81.39 47.63, 104 19.53 M66.43 70.81 C75.45 62.23, 81.49 52.47, 105.3 25.83 M65.63 71.53 C75.42 57.54, 87.56 46.11, 106.23 24.56 M71.2 71.91 C82.59 60.32, 92.18 46.98, 103.55 30.35 M70.96 71.93 C79.25 61.74, 89.81 50.63, 105.61 31.96 M77.39 71.69 C81.66 64.34, 87.88 56.61, 107.16 36.17 M75.14 70.56 C84.21 61.02, 93.62 51.17, 105.68 36.8 M81.56 71.22 C85.59 65.1, 91.33 58.04, 105.95 43.14 M80.43 70.77 C85.79 65.35, 91.48 58.86, 104.49 43.35 M87.2 71.02 C91.65 65.4, 96.12 58.52, 106.78 49.52 M87.11 70.84 C92.01 65.75, 96.85 58.4, 105.56 50.96 M89.77 71.83 C95.04 64.52, 101.96 60.45, 103.95 54.95 M90.61 71.17 C96.4 66.61, 100.43 62.31, 105.28 56.54 M97.79 70.01 C99.41 68.76, 102.08 66.55, 104.08 61.7 M97.67 70.73 C99.56 68.22, 102.15 65.96, 105.13 62 M101.63 71.26 C102.66 70.96, 103.94 69.79, 105.06 67.97 M101.92 71.33 C103.21 70.33, 104.51 68.97, 105.58 68" stroke="#fff" stroke-width="0.5" fill="none"></path><path d="M-1.96 -1.59 C20.9 -2.33, 44.12 -2.22, 104.32 -1.83 M0.16 -0.34 C23.31 1.81, 47.74 0.8, 103.58 0.26 M102.25 1.39 C103.69 28.25, 102.64 54.97, 105.84 70.97 M104.91 0.53 C103.93 16.36, 103.27 34.42, 103.1 70.1 M102.72 71.56 C83.58 67.91, 59.68 69.58, -1.18 71.45 M103.82 69.02 C81.95 69.53, 61.16 70.93, 0.17 69.62 M0.26 69.65 C2.55 53.06, 2.21 38.56, -1.43 1.85 M0.68 69.69 C-1.07 51.76, 0.32 32.71, -0.24 0.95" stroke="#000000" stroke-width="1" fill="none"></path></g><g transform="translate(42.68359375 244.46875) rotate(0 47 30)"><text x="47" y="14" font-family="Virgil, Segoe UI Emoji" font-size="16px" fill="#000000" text-anchor="middle" style="white-space: pre;" direction="ltr">Tenant 01</text><text x="47" y="34" font-family="Virgil, Segoe UI Emoji" font-size="16px" fill="#000000" text-anchor="middle" style="white-space: pre;" direction="ltr">Control </text><text x="47" y="54" font-family="Virgil, Segoe UI Emoji" font-size="16px" fill="#000000" text-anchor="middle" style="white-space: pre;" direction="ltr">Plane Pod</text></g><g stroke-linecap="round" transform="translate(223.50390625 236.83203125) rotate(0 52 35)"><path d="M0 0 C0 0, 0 0, 0 0 M0 0 C0 0, 0 0, 0 0 M-0.85 6.14 C2 3.89, 3.65 1.29, 5.08 -0.09 M-0.3 6.01 C1.84 3.83, 3.73 1.85, 5.03 0.27 M-1.27 12.66 C4.59 7.1, 7.83 3.89, 10.89 0.88 M0.58 12.22 C3.61 8.07, 7.36 3, 10.91 -0.3 M0.82 16.67 C4.01 11.44, 8.08 8.17, 15.81 -0.36 M-0.08 19.23 C4.47 12.49, 8.25 7.92, 16.08 0.46 M0.06 24.32 C8.41 15.03, 18.11 5.12, 19.28 1.27 M1.1 23.28 C7.9 14.88, 15.56 6.73, 21.99 0.79 M-1.32 28.75 C4.68 22.74, 14.89 15.96, 27.18 -0.79 M-0.77 30.94 C8.86 19.97, 19.01 10.96, 26.91 -0.56 M-1.34 35.96 C9.4 26.94, 17.99 14.84, 33.56 1.77 M0.24 36.4 C7.82 27.12, 17.46 16.25, 31.06 0.23 M0.11 41.57 C13.99 27.64, 24.81 11.24, 38.18 -1.34 M-0.78 42.07 C12.13 28.42, 23.76 14.63, 36.58 -0.65 M-2.03 49.34 C11.22 35.21, 25.05 19.82, 44.4 1.32 M-0.42 48.23 C13.42 33.28, 26.65 16.81, 42.93 -0.37 M-0.67 56.25 C13.43 39.76, 27.92 21.92, 48.66 1.23 M-0.19 54.08 C17.13 35.06, 33.39 17.03, 46.82 -0.02 M0.81 62.82 C20.71 35.52, 39.71 11.13, 54.37 -1.8 M-0.61 61.11 C17.85 39.15, 38.36 17.93, 53.6 -0.37 M-2.11 66.17 C23.36 41.97, 47.83 14.61, 57.42 -1.3 M-0.47 68.19 C16.93 46.77, 35.34 26.76, 57.15 -0.41 M2.92 73.06 C15.68 51.97, 34.3 34.33, 64.02 0.19 M1.68 71.62 C26.07 43.08, 50.1 14.77, 63.32 -1.14 M8.48 71.71 C21.63 55.21, 34.84 39.34, 68.23 1.39 M6.36 71.02 C20.04 57.62, 32.36 41.59, 67.83 -0.08 M11.56 71.67 C36.5 45.01, 61.27 15.07, 73.85 -1.37 M11.78 72.24 C29.94 50.34, 49.59 27.97, 73.63 -1.06 M18.65 71.83 C39.01 46.12, 59.56 22.53, 79.85 0.14 M18.43 71.3 C32.39 55.31, 46.34 38.52, 78.9 -0.79 M23.93 70.46 C35.57 57.67, 47.93 39.52, 86.34 -1.63 M21.73 71.6 C39.87 50.83, 57.04 30.56, 84.33 -0.55 M27.21 69.55 C50.88 44.76, 72.11 20.44, 91.98 0.32 M27.43 70.2 C46.13 50.87, 65.28 28.92, 89.16 -0.82 M31.36 73.15 C58.5 43.32, 84.56 15.44, 95.93 -0.19 M33.52 71.21 C57.61 43.64, 82.77 13.85, 96.48 -1.01 M40.24 71.63 C58.75 47.45, 77.8 26.26, 99.3 -0.17 M39.63 70.11 C56.51 51.73, 72.69 32.32, 101.2 0.01 M44.16 72.04 C62.34 49.96, 82.13 24.01, 105.74 2.36 M44.92 71.1 C59.48 53.86, 74.77 36.43, 104.09 1.64 M49.12 71.13 C65.82 55.56, 77.82 36.53, 103.56 5.91 M48.87 72.18 C69.89 48.66, 91.13 23.17, 104.42 6.2 M53.6 69.93 C75.45 48.96, 92.91 26.62, 104.26 12.55 M54.44 70.76 C69.21 54.23, 84.58 36.71, 105.89 13.99 M59.18 70.35 C71.81 55.02, 87.98 37.44, 104.03 18.77 M60.26 72.25 C76.88 51.54, 93.79 32.1, 104.61 19.15 M65.92 70.17 C80.59 54.47, 94.73 37.32, 107.05 26.78 M64.37 72.17 C78.98 56.77, 91.59 40.4, 105.91 25.02 M71.73 71.42 C83.37 56, 93.14 42.96, 106.21 31.11 M71.17 72.44 C83.88 57.41, 96.41 41.02, 105.52 31.72 M76.34 70.63 C87.01 60.31, 96.88 45.88, 104.41 35.58 M75.77 70.79 C83.24 64.07, 89.04 55.35, 106.28 37.25 M80.73 71.22 C88.26 63.13, 96.65 51.48, 103.99 43.71 M80.93 71.07 C87.26 63.95, 93.25 57.48, 106.12 42.81 M87.04 69.72 C92.86 66.07, 98.28 57, 104 51.73 M87.45 70.58 C93.1 64.27, 100.75 56.51, 104.74 49.94 M90.08 72.17 C94.61 66.97, 96.59 64.72, 104.91 55.15 M91.1 72.45 C94.41 68.11, 98.21 64.4, 104.83 56.04 M97.16 71.89 C100.25 67.04, 102.38 65.01, 104.02 61.64 M97.05 71.05 C100.86 67.8, 103.22 63.81, 104.55 62.69 M102.5 71.71 C102.96 70.46, 103.67 70.26, 104.91 67.95 M102.22 71.63 C102.93 70.9, 103.84 69.79, 105.49 67.7" stroke="#fff" stroke-width="0.5" fill="none"></path><path d="M-1.41 -0.21 C19.73 0.98, 40.22 -0.72, 102.49 -1.87 M0.84 -0.33 C32.7 0.33, 66.01 1.73, 104.22 -0.97 M104.44 -1.52 C103.83 16.73, 105.46 28.64, 103.97 71.24 M103.35 -0.72 C104.77 26.44, 104.47 53.82, 104.91 69.23 M102.71 70.31 C79.86 69.8, 56.4 69.04, 0.24 70.44 M103.31 69.36 C75.41 69.18, 45.03 68.3, -0.84 70.45 M-0.86 71.62 C0.85 46.67, 1.98 25.52, 1.13 1.4 M0.37 70.71 C0.14 44, 1.17 18.11, 0.41 0.25" stroke="#000000" stroke-width="1" fill="none"></path></g><g transform="translate(228.50390625 241.83203125) rotate(0 47 30)"><text x="47" y="14" font-family="Virgil, Segoe UI Emoji" font-size="16px" fill="#000000" text-anchor="middle" style="white-space: pre;" direction="ltr">Tenant 02</text><text x="47" y="34" font-family="Virgil, Segoe UI Emoji" font-size="16px" fill="#000000" text-anchor="middle" style="white-space: pre;" direction="ltr">Control </text><text x="47" y="54" font-family="Virgil, Segoe UI Emoji" font-size="16px" fill="#000000" text-anchor="middle" style="white-space: pre;" direction="ltr">Plane Pod</text></g><g stroke-linecap="round" transform="translate(477.12890625 236.359375) rotate(0 52 35)"><path d="M0 0 C0 0, 0 0, 0 0 M0 0 C0 0, 0 0, 0 0 M-0.38 6.16 C0.61 5.11, 1.69 4.16, 5.64 0.22 M-0.63 6.62 C1.15 4.67, 2.74 2.98, 4.88 0.21 M-0.91 12.86 C2 9.67, 5.45 7.79, 10.49 -0.06 M0.49 11.72 C3.47 8.06, 7.31 3.5, 11.32 -0.8 M-1.82 17.31 C6 12.37, 10.29 5.62, 15.15 2.07 M-0.75 17.76 C4.52 13.37, 9.46 8.39, 16.6 0.75 M0.96 25.37 C6.77 15.1, 13.75 11.27, 22.04 1.41 M-0.11 24.4 C8.66 15.5, 17.43 5.09, 21.63 -0.45 M-0.04 31.92 C7.37 24.61, 11.46 17.41, 24.56 -0.99 M-0.44 31.43 C6.5 24.5, 10.7 16.93, 26.21 -0.08 M0.12 36.98 C6.5 29.37, 17.58 18.07, 33.82 0.67 M0.21 37.39 C10.86 23.22, 22.76 11.74, 32.63 0.72 M0.92 40.8 C11.04 31.06, 20.67 17.67, 35.62 1.62 M0.08 41.9 C7.91 33.51, 14.73 24.97, 36.94 0.27 M0.74 48.81 C8.53 41.03, 18.7 29.43, 44.07 1.22 M0.05 49.08 C10.97 35.88, 23.05 22.14, 43.52 0.55 M1.71 55.08 C11.28 42, 24.72 28.1, 46.61 -0.36 M-0.37 54.41 C12.86 40.03, 24.28 27.88, 48.18 0.33 M-1.16 58.97 C16.16 41.38, 33.95 20.42, 53.6 0.54 M-0.04 61.94 C12.87 47.27, 25.02 33.26, 52.79 -0.66 M0.87 68.62 C12.78 52.7, 22.85 39.71, 59.37 -0.22 M-0.14 67.18 C16.34 47.97, 31.07 29.86, 58.3 -0.59 M-0.06 72.3 C23.49 45.52, 47.79 20.42, 63.77 0.08 M1.42 70.96 C21.39 47.91, 40.6 24.37, 63.41 0.64 M6.63 72.68 C28.21 43.96, 53.67 16.41, 69.25 -0.27 M8.1 71.15 C20.66 53.85, 34.81 39.62, 69.63 0.57 M13.65 73.03 C28.44 50.98, 45.01 31.95, 74.43 -0.75 M12.46 71.33 C27.95 51.98, 44.25 33.78, 73.86 0.29 M16.66 71.58 C37.68 46.83, 60.16 20.53, 79.15 -1.87 M18.03 70.62 C40.53 44.27, 62.26 17.69, 79.51 -0.34 M24.03 70.01 C44.08 46.98, 66.68 19.51, 86.01 1.44 M23.05 70.64 C35.58 56.42, 47.41 43.16, 85.09 -0.62 M26.45 72.11 C42.17 55.39, 59.04 36.08, 89.47 0.59 M29.13 71.65 C41.33 55.75, 53.62 42.88, 89.27 0.27 M33.9 72.49 C46.41 57.31, 57.85 44.64, 97.42 -0.01 M34.31 71.69 C53.07 49.4, 72.39 25.93, 95.52 -0.73 M37.31 71.25 C60.38 43.77, 83.27 18.88, 100.19 1.72 M39.66 70.77 C62.73 45.42, 84.46 19.27, 101.19 0.76 M45.57 70.68 C60.79 50.67, 82.65 27.28, 106.83 1.74 M44.36 72.02 C68.87 42.31, 92.75 15.15, 104.77 2.09 M50.44 70.69 C66.08 49.37, 83.02 32.61, 106.86 5.85 M49.68 72.57 C64.33 51.58, 80.87 34.63, 105.67 6.07 M54.9 69.75 C68.59 55.71, 79.56 42.03, 104.37 15.05 M55.3 70.96 C69.74 55.95, 84.35 38.85, 105.37 13.79 M59.51 71.85 C71.22 56.71, 84.39 44.47, 103.17 18.77 M58.73 71.6 C75.03 52.38, 92 34.16, 104.62 20.34 M65.28 71.87 C78.33 57.52, 93.78 41.13, 105.74 24.59 M66.21 70.59 C73.6 62, 81.7 52, 105.39 25.95 M68.78 70.35 C82.8 57.65, 95.84 42.89, 105.56 31.16 M70.84 71.96 C82.8 56.1, 97.44 40.55, 105.22 31.43 M77.64 70.14 C85.64 59.26, 93.38 47.78, 104.01 35.6 M76.16 70.77 C83.88 62.16, 93.13 51.76, 105.19 37 M81.67 71.06 C86.57 62.37, 95.19 54.45, 103.45 42.24 M80.21 71.27 C88.55 64.04, 95.06 54.81, 105.03 43.53 M88.42 70.65 C92.6 63.41, 100.33 58.6, 104.12 50.03 M87.19 72.1 C94.48 62.75, 101.02 53.66, 104.99 49.38 M90.17 70.8 C94.44 67.57, 97.19 62.52, 104.46 57.45 M91.5 72.39 C94.63 67, 98.88 63.82, 104.29 55.84 M96.21 70.75 C99.72 67.44, 101.35 66.78, 104.1 61.77 M97.26 71.05 C99.1 68.05, 102.24 65.3, 104.66 61.77 M101.78 71.74 C103.57 69.62, 104.76 68.29, 104.97 67.62 M102.3 71.77 C103.15 70.34, 104.29 68.89, 105.59 67.9" stroke="#fff" stroke-width="0.5" fill="none"></path><path d="M0.32 -1.83 C22.48 -0.84, 45.85 1, 103.31 -1.45 M-0.42 0.26 C40.89 0.4, 78.86 -0.69, 104.69 -0.23 M105.84 0.97 C102.33 22.49, 104.71 46.86, 105.06 69.89 M103.1 0.1 C102.64 17.37, 102.73 32.28, 104.78 70.95 M102.82 71.45 C77.56 70.44, 55.43 69.83, -1.95 68.09 M104.17 69.62 C79.32 69.9, 56.51 70.86, -0.18 70.98 M-1.43 71.85 C-1.25 53.15, 0.83 35.41, -0.62 -1.35 M-0.24 70.95 C-0.86 46.84, -0.25 22.48, -0.19 -0.8" stroke="#000000" stroke-width="1" fill="none"></path></g><g transform="translate(482.12890625 241.359375) rotate(0 47 30)"><text x="47" y="14" font-family="Virgil, Segoe UI Emoji" font-size="16px" fill="#000000" text-anchor="middle" style="white-space: pre;" direction="ltr">Tenant X</text><text x="47" y="34" font-family="Virgil, Segoe UI Emoji" font-size="16px" fill="#000000" text-anchor="middle" style="white-space: pre;" direction="ltr">Control </text><text x="47" y="54" font-family="Virgil, Segoe UI Emoji" font-size="16px" fill="#000000" text-anchor="middle" style="white-space: pre;" direction="ltr">Plane Pod</text></g><g stroke-linecap="round"><g transform="translate(525.5342620282804 234.99609375) rotate(0 -56.431353762159006 -48.46384774055332)"><path d="M0.7 0.04 C-31.35 -31.75, -66.88 -57.88, -114.18 -98.12 M1.31 1.19 C-37.98 -32.28, -75.17 -63.12, -111.93 -96.13" stroke="#000000" stroke-width="1" fill="none"></path></g><g transform="translate(525.5342620282804 234.99609375) rotate(0 -56.431353762159006 -48.46384774055332)"><path d="M-83.29 -85.17 C-88.77 -90.94, -99.39 -92.08, -113.73 -98.62 M-82.67 -84.02 C-92.15 -90.13, -101.19 -92.73, -111.48 -96.64" stroke="#000000" stroke-width="1" fill="none"></path></g><g transform="translate(525.5342620282804 234.99609375) rotate(0 -56.431353762159006 -48.46384774055332)"><path d="M-96.85 -69.77 C-98.63 -79.91, -105.25 -85.59, -113.73 -98.62 M-96.23 -68.62 C-101.49 -80, -106.01 -87.74, -111.48 -96.64" stroke="#000000" stroke-width="1" fill="none"></path></g></g><g stroke-linecap="round"><g transform="translate(90.3515625 239.46484375) rotate(0 46.535840139724314 -53.44224763289094)"><path d="M3.69 -1.38 C33.19 -43.28, 71.21 -77.31, 91.49 -105.51 M1.58 -1.66 C30.27 -38.73, 66.11 -72.39, 90.94 -102.04" stroke="#000000" stroke-width="1" fill="none"></path></g><g transform="translate(90.3515625 239.46484375) rotate(0 46.535840139724314 -53.44224763289094)"><path d="M83.48 -75.56 C82.51 -87.88, 89.69 -93.5, 90.38 -105.12 M81.36 -75.84 C82.14 -85.21, 89.15 -92.3, 89.82 -101.65" stroke="#000000" stroke-width="1" fill="none"></path></g><g transform="translate(90.3515625 239.46484375) rotate(0 46.535840139724314 -53.44224763289094)"><path d="M68.19 -89.25 C73.11 -96.57, 86.12 -96.97, 90.38 -105.12 M66.07 -89.53 C72.46 -94.24, 84.92 -96.45, 89.82 -101.65" stroke="#000000" stroke-width="1" fill="none"></path></g></g><g stroke-linecap="round"><g transform="translate(278.7297419626266 237.95481406897306) rotate(0 -0.29501402750611305 -26.111995544284582)"><path d="M-1.29 0.48 C-1.16 -12.59, -2.99 -25.07, 0.71 -50.19 M1.98 -0.96 C-2.26 -13.69, -0.71 -22.67, -2.57 -52.7" stroke="#000000" stroke-width="1" fill="none"></path></g><g transform="translate(278.7297419626266 237.95481406897306) rotate(0 -0.29501402750611305 -26.111995544284582)"><path d="M6.31 -27.82 C4.5 -34.98, 1.12 -41.65, 0.8 -50.09 M9.57 -29.26 C3.64 -35.28, 3.45 -37.69, -2.48 -52.6" stroke="#000000" stroke-width="1" fill="none"></path></g><g transform="translate(278.7297419626266 237.95481406897306) rotate(0 -0.29501402750611305 -26.111995544284582)"><path d="M-11.76 -27 C-9.86 -34.56, -9.54 -41.4, 0.8 -50.09 M-8.49 -28.43 C-10.24 -34.96, -6.25 -37.56, -2.48 -52.6" stroke="#000000" stroke-width="1" fill="none"></path></g></g><g stroke-linecap="round"><g transform="translate(115.4252912273273 16.426133812820794) rotate(0 -39.039406136858815 45.06817452697062)" fill-rule="evenodd"><path d="M-75.82 17.57 C-75.82 17.57, -75.82 17.57, -75.82 17.57 M-75.82 17.57 C-75.82 17.57, -75.82 17.57, -75.82 17.57 M-73.65 22.05 C-72.46 19.96, -71.76 18.77, -71.14 17.49 M-73.94 21.9 C-73.17 20.6, -72.39 19.42, -70.92 17.75 M-76.75 32.28 C-72.19 24.27, -68.02 20.49, -60.62 12.58 M-75.45 30.55 C-73.7 26.33, -68.97 21.35, -62.03 13.59 M-77.25 36.36 C-72.41 28.98, -65.57 23.27, -52.15 10.66 M-78 39.14 C-71.88 32.25, -67.14 24.13, -53.47 8.9 M-78.7 48.83 C-65.64 28.5, -51.73 10.87, -40.4 0.84 M-80.8 47.92 C-64.58 29.93, -51.18 13.04, -40.09 0.95 M-83.57 56.35 C-64.26 37.41, -44.85 12.7, -34.84 0.8 M-82.84 56.52 C-71.8 44.85, -61.23 33.16, -35.61 1.83 M-80.27 59.15 C-63.3 42.19, -47.14 20.78, -29.64 3.37 M-81.74 60.39 C-65.34 42.75, -50.48 25.48, -31.88 2.27 M-77.87 65.86 C-65.75 45.68, -51.69 29.09, -29.56 3.93 M-78.44 64.14 C-62.88 45.7, -46.25 25.03, -27.74 4.5 M-74.74 68.32 C-59.5 48.16, -39.79 26.21, -24.46 6.79 M-76.8 67.79 C-64.28 55.58, -53.97 41.96, -23.4 7.13 M-74.18 71.05 C-59.71 52.51, -45.48 39.42, -20.24 9.15 M-75.22 70.7 C-61.62 55.37, -48.27 40.2, -20.5 8.53 M-71.39 75.2 C-54.27 51.87, -37.27 34.64, -16.61 11.77 M-70.57 73.03 C-58.49 58.32, -44.28 42.98, -17.74 9.99 M-69.86 76.23 C-51.74 58.79, -35.69 39.47, -14.73 11.65 M-68.51 75.83 C-51.51 57.27, -32.2 35.35, -13.55 11.87 M-65.04 80.09 C-52.01 64.13, -34.41 46.04, -10.94 12.72 M-66.2 80.76 C-50.53 63.21, -35.07 43.31, -9.72 14.79 M-64.06 84.17 C-47.81 64.31, -32.25 48.47, -4.39 14.55 M-63.93 83.43 C-45.14 62.5, -28.14 43.81, -6.08 15.74 M-59.35 84.24 C-43.94 64.07, -24.89 44.03, -2.79 19 M-61.74 85.88 C-48.79 69.41, -35.45 54.28, -2.14 17.26 M-57.73 87.87 C-38.83 67.43, -17.53 41.75, 0.65 20.46 M-58.49 88.41 C-34.56 63.03, -11.49 35.82, 0.92 21.12 M-56.09 91.62 C-35.38 69.52, -18.16 50.43, 0.11 25.48 M-54.42 90.3 C-34.95 70.94, -17.28 48.89, 1.25 26.43 M-49.02 89.51 C-38.58 76.39, -24.87 64.65, 1.49 29.48 M-48.9 90.68 C-30.16 66.74, -9.71 45.14, 1.62 31.79 M-42.55 91.91 C-28.71 73.81, -18.26 59.08, 2.11 34.45 M-43.01 90.95 C-32.52 76.85, -21.2 64.76, 3.22 35.52 M-39.13 91.54 C-27.06 76.84, -15.14 63.26, 4.32 40.12 M-38.52 91.19 C-24.03 73.93, -8.39 57.24, 4.24 40.24 M-34.05 92.31 C-19.16 73.22, -4.65 55.63, 6.45 45.91 M-33.34 90.55 C-19.77 74.5, -3.91 57.12, 6.9 45.31 M-26.38 90.12 C-17.45 76.99, -3.1 59.1, 8.56 50.63 M-28.35 90.42 C-18.18 78.74, -5.61 66.45, 8.18 49.99 M-20.11 89.94 C-12.32 79.42, -5.12 66.97, 4.65 56.89 M-21.54 89.06 C-11.93 79.31, -4.19 68.34, 6.12 56.35 M-61.74 86.27 C-61.74 86.27, -61.74 86.27, -61.74 86.27 M-61.74 86.27 C-61.74 86.27, -61.74 86.27, -61.74 86.27 M-56.44 86.09 C-65.19 81.19, -71.28 71.94, -76.55 70.16 M-54.93 86.92 C-60.22 82.71, -64.86 78.35, -76.56 68.76 M-50.16 85.44 C-60.84 77.33, -68.13 70.12, -84.07 57.29 M-49.94 87.77 C-60.41 77.07, -70.92 67.68, -83.63 54.98 M-41.82 89.04 C-55.45 76.64, -69.07 63.85, -84.6 50.5 M-41.97 86.81 C-54.77 77.12, -66.1 67.11, -82.37 51.45 M-36.29 88.66 C-52.17 73.12, -67.24 60.75, -82.07 47.74 M-36.4 86.96 C-55.18 71.16, -73.69 54.83, -81.77 46.54 M-29.18 85.78 C-50.18 70.08, -66.05 53.53, -80.79 41.41 M-30.3 86.46 C-48.61 70.47, -69.4 54.42, -80.9 43.87 M-25.71 85.71 C-43.59 72.47, -59.32 56.96, -78.88 38.54 M-25.4 87.37 C-36.91 75.52, -50.84 65.1, -79.35 37.95 M-17.73 88.15 C-39.77 67.54, -63.49 49.71, -78.01 35.47 M-17.92 87.71 C-31.11 76.39, -44.25 63.02, -78.89 33.33 M-13.38 83.38 C-26.76 71.68, -41.99 62.95, -79.05 30.54 M-14.32 84.07 C-29.27 71.63, -42.2 58.76, -78.17 30.79 M-13.96 81.39 C-23.93 71.96, -37.86 60.72, -75.8 26.78 M-13.11 82.16 C-30.5 65.95, -49.74 49.93, -76.3 26.45 M-10.73 77.41 C-29.03 63.11, -44.86 47.74, -74.63 20.58 M-9.57 78.88 C-34.79 57.64, -59.6 34.47, -75.57 21.95 M-7.99 76.52 C-24.81 58.56, -43.59 46.62, -76.94 15.74 M-7.86 74.4 C-23.77 61.17, -38.22 48.56, -75.83 16.95 M-5.63 71.75 C-19.07 57.73, -35.17 44.38, -73.6 12.74 M-5.51 72.66 C-30.41 48.64, -55.35 27.67, -71.89 13.87 M-3.7 67.3 C-23.35 50.77, -44.09 33.97, -69.13 10.26 M-2.96 68.13 C-20 53.97, -35.74 39.25, -67.69 11.89 M-0.69 65.37 C-24.47 44.98, -49.88 24.01, -62.66 11.76 M0.19 65.06 C-15.88 51.6, -33.55 36.78, -64.22 8.94 M1.84 61.43 C-10.69 51.43, -23.78 37.17, -59.35 10.11 M1.56 62.24 C-11.41 50.73, -22.42 40.19, -60.89 8.92 M4.77 58.24 C-13.03 45.35, -27.24 31.47, -55.29 7.74 M5.6 59.52 C-17.48 39.13, -41.44 20.78, -55.46 7.2 M7.04 57.93 C-10.9 41.3, -24.11 25.47, -53.02 5.24 M6.13 55.28 C-6.71 45.59, -19.27 32.41, -53.45 3.74 M9.42 49.97 C-11.39 30.86, -36.93 12.3, -46.89 4.06 M8.25 50.94 C-4.83 39.72, -16.3 29.89, -48.52 3.27 M8.6 45.87 C-6.52 34.3, -17.84 26.23, -45.29 1.24 M7.38 45.1 C-8.2 32.64, -23.68 17.43, -44.65 0.45 M3.98 37.84 C-5.93 28.76, -18.69 19.33, -38.58 1.37 M4.15 38.67 C-10.85 23.3, -28.54 9.11, -39.04 -0.67 M3.02 32.83 C-7.14 24.4, -18.43 14.44, -35.76 -3.34 M4.72 32.39 C-10.39 19.78, -22.01 8.46, -34.77 -2.11 M0.5 24.62 C-7.56 19.15, -13.97 9.87, -21.65 4.84 M2.11 25.36 C-3.62 20.93, -8.44 16.63, -20.9 5.39" stroke="#326ce5" stroke-width="0.5" fill="none"></path><path d="M-39.44 0 C-39.44 0, -39.44 0, -39.44 0 M-39.44 0 C-39.44 0, -39.44 0, -39.44 0 M-39.42 0.15 C-40.37 0.17, -41.33 0.47, -41.6 0.43 M-39.53 -0.1 C-40.06 0.19, -40.44 0.37, -41.75 0.71 M-41.48 0.96 C-46.7 2.14, -53.06 7.82, -73.57 17.4 M-42.13 0.45 C-52.98 5.51, -66.01 11.71, -74.09 15 M-73.63 15.81 C-73.63 15.81, -73.63 15.81, -73.63 15.81 M-73.63 15.81 C-73.63 15.81, -73.63 15.81, -73.63 15.81 M-73.65 15.97 C-74.16 16.28, -74.53 16.57, -75.89 17.63 M-73.72 15.92 C-74.28 16.28, -75.03 17.04, -75.86 17.47 M-75.79 17.62 C-76.32 18.49, -76.83 19.28, -77.03 19.79 M-75.75 17.36 C-76.13 18.54, -76.76 19.4, -76.86 19.96 M-78.51 20.87 C-78.31 27.98, -81.79 37.54, -82.9 52.66 M-77.18 20.22 C-79.55 29.63, -80.96 38.1, -85.32 53.31 M-84.71 53.99 C-84.71 53.99, -84.71 53.99, -84.71 53.99 M-84.71 53.99 C-84.71 53.99, -84.71 53.99, -84.71 53.99 M-84.84 54.11 C-84.87 54.57, -84.55 55.23, -84.98 56.54 M-84.8 53.95 C-84.8 54.71, -84.75 55.23, -84.66 56.46 M-84.66 56.58 C-84.41 57.33, -84.05 58.1, -84.07 58.86 M-84.67 56.42 C-84.61 56.91, -84.39 57.55, -83.89 58.73 M-83.83 58.59 C-83.83 58.7, -83.73 58.78, -83.53 59.08 M-83.83 58.62 C-83.76 58.76, -83.71 58.82, -83.5 59.13 M-82.75 60.21 C-79.04 64.69, -71.67 71.71, -62.68 88.15 M-83.8 58.37 C-78.9 65.79, -73.91 71.38, -61.92 87.4 M-61.51 86.47 C-61.51 86.47, -61.51 86.47, -61.51 86.47 M-61.51 86.47 C-61.51 86.47, -61.51 86.47, -61.51 86.47 M-61.29 86.38 C-61.2 86.6, -60.8 86.94, -59.18 88.13 M-61.48 86.51 C-60.7 86.94, -60.06 87.64, -59.26 88.14 M-59.17 88.06 C-58.67 88.35, -58.14 88.46, -56.77 88.83 M-59.34 88.06 C-58.57 88.27, -57.53 88.62, -56.81 88.59 M-58.68 90.34 C-48.69 90.31, -39.59 87.62, -20.36 87.17 M-57.02 88.73 C-44.67 87.83, -30.16 89.53, -21.13 88.01 M-21.48 88.71 C-21.48 88.71, -21.48 88.71, -21.48 88.71 M-21.48 88.71 C-21.48 88.71, -21.48 88.71, -21.48 88.71 M-21.46 88.51 C-20.79 88.78, -20.04 88.69, -18.75 87.92 M-21.43 88.68 C-20.84 88.44, -20.15 88.32, -18.74 88 M-18.97 88.35 C-18.01 87.65, -17.2 87, -16.88 86.47 M-18.94 88.18 C-18.32 87.7, -17.63 87.1, -16.82 86.49 M-17.27 85.87 C-8.3 75.51, -1.88 67.02, 7.24 59 M-16.33 87.29 C-10.79 79.25, -3.87 70.73, 6.1 59.61 M5.26 59.09 C5.26 59.09, 5.26 59.09, 5.26 59.09 M5.26 59.09 C5.26 59.09, 5.26 59.09, 5.26 59.09 M5.15 58.92 C5.84 58.22, 5.95 57.13, 6.34 56.94 M5.13 58.97 C5.59 58.43, 5.91 57.97, 6.36 56.57 M6.42 56.52 C6.63 55.76, 6.24 55.19, 6.42 53.83 M6.49 56.56 C6.28 56.2, 6.48 55.4, 6.44 53.86 M6.27 55.77 C4.16 45.67, 0.73 35.93, 0.08 18.12 M5.8 54.33 C3.69 46.65, 2.18 39.75, -2.23 19.65 M-1.44 19.87 C-1.44 19.87, -1.44 19.87, -1.44 19.87 M-1.44 19.87 C-1.44 19.87, -1.44 19.87, -1.44 19.87 M-1.19 19.73 C-1.94 19.09, -2.18 18.58, -2.36 17.2 M-1.47 19.74 C-1.84 19.18, -2.22 18.6, -2.75 17.39 M-2.67 17.41 C-3.09 16.89, -4.37 16.5, -4.7 15.6 M-2.59 17.48 C-3.16 17.01, -3.59 16.84, -4.78 15.88 M-5.93 15.33 C-14.63 9.74, -21.07 8.7, -36.17 1.8 M-4.52 15.18 C-16.31 9.69, -29.85 4.47, -37.13 1.13 M-36.51 0.63 C-36.51 0.63, -36.51 0.63, -36.51 0.63 M-36.51 0.63 C-36.51 0.63, -36.51 0.63, -36.51 0.63 M-36.52 0.9 C-37.55 0.28, -38.52 0.31, -39.28 -0.21 M-36.53 0.7 C-37.35 0.53, -38.06 0.39, -39.58 -0.05 M-39.47 0 C-39.46 0, -39.45 0, -39.44 0 M-39.47 0 C-39.46 0, -39.45 0, -39.44 0 M-39.44 0 C-39.44 0, -39.44 0, -39.44 0 M-39.44 0 C-39.44 0, -39.44 0, -39.44 0" stroke="#326ce5" stroke-width="1" fill="none"></path></g></g><g stroke-linecap="round"><g transform="translate(104.7310207329034 27.721150173861275) rotate(0 -29.01136413565831 32.750158952110695)" fill-rule="evenodd"><path d="M-29.93 -1.74 L-30.09 0.09 L-29.75 1.95 L-31.21 3.81 L-32.34 3.16 L-32.2 1.87 L-32.24 3.19 L-29.66 6.32 L-31.33 10.05 L-31.29 10.16 L-32.9 11.16 L-33.88 10.27 L-38.58 11.11 L-40.04 12.14 L-43.16 15.71 L-48.47 19.16 L-48.67 16.48 L-49.24 15.57 L-48.04 16.48 L-53.36 12.96 L-52.42 12.31 L-53.75 14.03 L-53.92 13.31 L-55.03 12.68 L-54.53 13.66 L-55.98 15.36 L-56.65 16.9 L-55.85 17.29 L-53.76 17.82 L-55.18 16.19 L-51.82 17.9 L-51.51 18.3 L-50.34 20.12 L-50.85 21.76 L-53.05 23.35 L-53.49 29.03 L-54.59 31.78 L-53.84 36.94 L-55.7 39 L-54.17 37.32 L-53.93 37.77 L-59.13 40.71 L-61.34 41.07 L-62.01 39.02 L-62.68 40.08 L-60.01 38.76 L-60.83 39.8 L-63.41 40.46 L-62.58 40.82 L-62.39 42.42 L-62.94 41.92 L-59.78 42.21 L-60.98 41.93 L-60.01 44.4 L-58.98 43.54 L-58.95 41.95 L-55.54 41.7 L-52.44 43.91 L-53.88 40.73 L-53.13 40.6 L-52.71 46.08 L-47.4 48.99 L-45.61 52.55 L-42.43 53.92 L-42.19 56.08 L-41.1 54.59 L-42.81 56.79 L-43.76 59.4 L-44.75 61.81 L-46.14 61.99 L-44.03 61.21 L-45.68 64.21 L-46.32 64.72 L-43.37 63.92 L-41.6 66.67 L-42.25 64.84 L-41.37 65.83 L-43.26 63.94 L-42.76 62.25 L-42.21 62.1 L-41.06 62.53 L-41.79 61.51 L-38.3 59.99 L-36.57 58.51 L-36.85 55.55 L-37.1 55.62 L-34.6 58.9 L-27.79 58.57 L-25.24 58.39 L-21.86 57.67 L-20.64 59.16 L-21.6 59.9 L-17.47 57.69 L-17.54 62.88 L-16.17 64.64 L-14.88 64.36 L-18.28 65.04 L-17.08 66.32 L-15.96 66.39 L-11.63 64.34 L-14.98 62.7 L-11.56 65.43 L-14.6 64.09 L-13.23 62.35 L-12.15 60.95 L-12.88 59.15 L-16.71 55.94 L-16.11 58.37 L-16.04 54.38 L-14.16 52.03 L-10.72 48.79 L-7.22 45.94 L-4.9 42.74 L-5 40.2 L-6.22 40.32 L-3.51 42.51 L-0.44 42.46 L2.25 41.79 L1.99 41.93 L2.37 42.48 L2.42 45.23 L1.46 41.5 L2.22 44.68 L6.02 42.54 L5.68 41.65 L5.96 39.3 L4.25 41.2 L3.81 41.58 L3.78 40.44 L1.85 39.88 L2.31 41.06 L-2.85 39.31 L-2.72 37.7 L-6.17 38.34 L-5.9 37.51 L-3.13 33.61 L-4.75 29.85 L-5.9 23.6 L-9.14 19.85 L-8.86 21.25 L-8.07 20.49 L-6.78 18.1 L-3.57 16.39 L-2.51 14.44 L-1.62 16.9 L-4.1 15.75 L-0.4 13.34 L-0.34 11.72 L-0.94 14.22 L-5.06 12.44 L-5.86 13.45 L-6.52 12.88 L-5.01 13.58 L-6.07 14.6 L-8.4 13.47 L-9.47 17.48 L-10.65 15.72 L-11.37 19.02 L-10.49 15.59 L-15.95 16.04 L-19.38 14.12 L-22.09 12.05 L-26.23 9.25 L-26.38 8.47 L-25.69 6.49 L-28.01 6.11 L-28.5 2.04 L-27.04 0.96 L-26.19 2.77 L-28.57 2.64 L-30.05 1.63 L-29.34 -0.84" stroke="none" stroke-width="0" fill="#fff" fill-rule="evenodd"></path><path d="M-29.03 0 C-29.03 0, -29.03 0, -29.03 0 M-29.03 0 C-29.03 0, -29.03 0, -29.03 0 M-28.93 -0.03 C-29.47 0.13, -29.84 0.52, -30.52 0.56 M-29.09 -0.06 C-29.4 0.22, -29.78 0.41, -30.34 0.6 M-30.37 0.8 C-30.69 1.29, -30.66 1.64, -30.78 2.22 M-30.41 0.72 C-30.57 0.99, -30.66 1.38, -30.96 2.15 M-30.9 2.07 C-30.86 2.29, -30.89 2.43, -30.93 2.67 M-30.88 2.09 C-30.87 2.26, -30.91 2.34, -30.92 2.64 M-30.9 2.65 C-30.9 2.65, -30.9 2.65, -30.9 2.65 M-30.9 2.65 C-30.9 2.65, -30.9 2.65, -30.9 2.65 M-30.81 2.55 C-30.72 2.84, -30.69 3.31, -30.71 4.64 M-30.98 2.71 C-30.76 3.05, -30.77 3.6, -30.59 4.42 M-30.47 4.57 C-30.71 5.3, -30.51 6.74, -30.68 7.83 M-30.58 4.43 C-30.53 5.28, -30.65 5.8, -30.57 8.02 M-30.33 7.89 C-30.71 8.26, -30.79 8.46, -31.02 8.88 M-30.44 7.9 C-30.68 8.29, -30.92 8.59, -31.04 8.9 M-31.03 8.86 C-31.12 9.16, -31.14 9.21, -31.06 9.67 M-31.08 8.87 C-31.05 9.21, -31.1 9.58, -31.09 9.72 M-31.11 9.71 C-31.11 9.71, -31.11 9.71, -31.11 9.71 M-31.11 9.71 C-31.11 9.71, -31.11 9.71, -31.11 9.71 M-31.37 9.45 C-32.25 9.78, -33.29 9.92, -34.78 9.93 M-31.2 9.83 C-32.13 9.9, -33.56 10.14, -34.48 10.13 M-34.35 10.11 C-35.71 10.83, -36.66 10.68, -37.73 11.07 M-34.69 10.13 C-35.63 10.42, -36.9 10.84, -37.86 11.48 M-37.86 11.39 C-39.23 11.52, -39.85 12.11, -40.95 12.55 M-37.9 11.38 C-39.29 11.85, -40.72 12.67, -41.15 12.7 M-41.43 12.68 C-42.46 13.24, -43.36 14.37, -44.3 15.05 M-41.24 12.99 C-42.11 13.28, -42.54 13.87, -44.3 14.7 M-44.4 15.13 C-45.12 16.08, -46.15 16.75, -46.83 17.51 M-44.4 14.76 C-45.23 15.7, -45.86 16.34, -47.15 17.21 M-46.92 17.34 C-47.07 17.27, -47.32 17.17, -47.74 16.91 M-46.99 17.3 C-47.25 17.2, -47.4 17.04, -47.71 16.87 M-47.68 16.85 C-47.68 16.85, -47.68 16.85, -47.68 16.85 M-47.68 16.85 C-47.68 16.85, -47.68 16.85, -47.68 16.85 M-47.76 16.89 C-47.86 16.93, -48.12 16.84, -48.89 16.71 M-47.69 16.82 C-48.03 16.79, -48.32 16.84, -48.85 16.79 M-48.49 16.74 C-49.32 16.04, -50.07 15.16, -51.34 14.34 M-48.72 16.67 C-49.57 16.03, -50.59 15.08, -51.31 14.54 M-51.42 14.46 C-51.86 13.87, -52.12 13.73, -52.62 13.07 M-51.29 14.38 C-51.62 14.11, -51.98 13.85, -52.57 13.01 M-52.56 13.06 C-52.69 13.03, -52.84 12.89, -53.01 12.75 M-52.6 13.12 C-52.7 13.01, -52.8 12.93, -53.04 12.78 M-53.04 12.76 C-53.04 12.76, -53.04 12.76, -53.04 12.76 M-53.04 12.76 C-53.04 12.76, -53.04 12.76, -53.04 12.76 M-53.12 12.88 C-53.59 12.5, -53.96 12.41, -54.45 12.14 M-53.1 12.7 C-53.51 12.61, -54.15 12.39, -54.43 12.23 M-54.21 12.26 C-54.91 12.4, -55.57 12.9, -56.02 12.78 M-54.33 12.2 C-54.97 12.47, -55.55 12.72, -55.9 12.96 M-55.74 13.05 C-56 13.49, -55.95 14.02, -56.21 14.29 M-55.86 12.87 C-55.91 13.27, -56.07 13.69, -56.15 14.43 M-56.3 14.35 C-55.98 14.84, -55.6 15.46, -55.55 15.71 M-56.3 14.4 C-55.96 14.82, -55.62 15.26, -55.44 15.78 M-55.42 15.79 C-55.29 15.79, -55.14 15.93, -55.05 16.01 M-55.4 15.72 C-55.32 15.81, -55.17 15.91, -55 16.05 M-55.02 16.06 C-55.02 16.06, -55.02 16.06, -55.02 16.06 M-55.02 16.06 C-55.02 16.06, -55.02 16.06, -55.02 16.06 M-55.04 16.09 C-54.54 16.46, -53.9 16.56, -53.34 16.93 M-54.98 16.12 C-54.73 16.3, -54.31 16.41, -53.41 16.98 M-53.12 16.82 C-52.51 17.51, -51.14 18.77, -50.83 18.84 M-53.35 16.9 C-52.62 17.5, -51.84 17.9, -50.65 18.93 M-50.54 19.06 C-50.5 19.21, -50.27 19.64, -50.14 20.1 M-50.54 19.03 C-50.5 19.35, -50.35 19.75, -50.26 20.11 M-50.25 20.1 C-49.99 20.34, -49.81 20.44, -49.59 20.65 M-50.24 20.06 C-50 20.27, -49.72 20.49, -49.57 20.68 M-49.58 20.65 C-49.58 20.65, -49.58 20.65, -49.58 20.65 M-49.58 20.65 C-49.58 20.65, -49.58 20.65, -49.58 20.65 M-49.27 21.1 C-50.73 22.15, -51.37 23.33, -52.12 24.48 M-49.4 20.67 C-50.08 21.49, -50.71 22.37, -51.89 24.54 M-51.3 24.7 C-52.63 26.32, -52.98 28.02, -53.37 28.62 M-51.69 24.42 C-52.15 26, -52.78 27.2, -53.15 28.79 M-53.54 28.59 C-53.7 29.67, -53.43 31.1, -53.46 33.01 M-52.91 28.91 C-53.22 30.01, -53.71 31.46, -53.85 33.45 M-53.27 33.24 C-53.89 34.42, -53.95 35.86, -53.31 38.08 M-53.47 33.5 C-53.65 34.52, -53.59 35.76, -53.28 37.99 M-53.5 37.84 C-53.64 37.94, -54 37.95, -54.28 37.97 M-53.49 37.85 C-53.64 37.9, -53.8 37.9, -54.24 38.06 M-54.26 38.04 C-54.26 38.04, -54.26 38.04, -54.26 38.04 M-54.26 38.04 C-54.26 38.04, -54.26 38.04, -54.26 38.04 M-54.15 37.95 C-54.52 38.13, -54.72 38.32, -55.14 38.89 M-54.25 38.02 C-54.49 38.3, -54.86 38.62, -55.11 38.88 M-54.89 38.65 C-55.63 39.13, -56.69 39.11, -58.51 39.12 M-54.99 38.98 C-55.74 38.95, -56.66 39.24, -58.45 39.36 M-58.45 39.51 C-59.35 39.58, -59.77 39.55, -60.28 39.46 M-58.49 39.36 C-59.03 39.41, -59.52 39.47, -60.34 39.58 M-60.27 39.54 C-60.47 39.56, -60.51 39.62, -60.8 39.65 M-60.33 39.55 C-60.46 39.61, -60.59 39.6, -60.84 39.68 M-60.83 39.68 C-60.85 39.68, -60.87 39.67, -60.89 39.68 M-60.83 39.68 C-60.84 39.68, -60.86 39.68, -60.89 39.68 M-60.88 39.68 C-60.88 39.68, -60.88 39.68, -60.88 39.68 M-60.88 39.68 C-60.88 39.68, -60.88 39.68, -60.88 39.68 M-60.81 39.72 C-61.22 39.87, -61.45 40.02, -61.91 40.08 M-60.84 39.71 C-61.16 39.79, -61.33 39.87, -61.85 40.09 M-61.91 40.02 C-61.99 40.28, -62.11 40.52, -62.35 40.78 M-61.83 40.07 C-62.08 40.37, -62.29 40.66, -62.43 40.87 M-62.47 40.74 C-62.19 41.27, -62.4 41.68, -62.23 42.93 M-62.42 40.9 C-62.3 41.45, -62.29 42.01, -62.16 42.77 M-62.12 42.77 C-62.09 42.82, -62.03 42.86, -62 42.92 M-62.13 42.76 C-62.09 42.79, -62.07 42.82, -61.99 42.9 M-62.06 42.85 C-61.84 43.07, -61.54 43.1, -61.17 43.52 M-62 42.89 C-61.7 43.1, -61.29 43.25, -61.05 43.42 M-61 43.53 C-60.83 43.36, -60.48 43.32, -60.12 43.32 M-61.05 43.4 C-60.85 43.38, -60.55 43.39, -60.07 43.37 M-60.03 43.39 C-60.02 43.39, -60.01 43.38, -60 43.39 M-60.03 43.38 C-60.03 43.38, -60.02 43.38, -60 43.39 M-59.95 43.36 C-59.8 43.32, -59.63 43.35, -59.46 43.36 M-60 43.36 C-59.81 43.38, -59.66 43.37, -59.48 43.34 M-59.48 43.33 C-59.48 43.33, -59.48 43.33, -59.48 43.33 M-59.48 43.33 C-59.48 43.33, -59.48 43.33, -59.48 43.33 M-59.39 43.34 C-58.81 42.95, -58.4 42.72, -57.8 42.73 M-59.47 43.36 C-59.07 43.14, -58.78 43.04, -57.85 42.68 M-57.89 42.4 C-57.36 42.38, -56.58 42.45, -54.51 42.06 M-57.85 42.59 C-56.81 42.4, -56.29 42.06, -54.58 41.87 M-54.48 41.62 C-53.95 41.87, -53.68 41.99, -53.29 42.04 M-54.43 41.73 C-54.07 41.86, -53.72 41.94, -53.37 42.11 M-53.42 42.04 C-53.09 42.11, -52.72 42.04, -52.45 41.98 M-53.32 42.08 C-53.15 42.06, -52.9 42.08, -52.55 41.99 M-52.51 41.98 C-52.51 41.98, -52.51 41.98, -52.51 41.98 M-52.51 41.98 C-52.51 41.98, -52.51 41.98, -52.51 41.98 M-52.06 41.95 C-52.08 43.17, -51.39 44.38, -50.64 46.56 M-52.44 41.97 C-51.89 43.34, -51.41 45.04, -50.91 46.27 M-51 45.83 C-50.23 47.33, -49.72 47.94, -48.63 50.19 M-50.85 46.28 C-50.19 46.78, -49.49 47.89, -48.08 49.91 M-48.46 49.72 C-47.03 51.24, -46.05 51.99, -45.21 52.76 M-48.09 49.93 C-47.52 50.42, -46.66 51.5, -45.34 53.21 M-45.03 53.21 C-44.09 53.86, -42.41 55.13, -41.27 55.37 M-45.13 53.11 C-44.1 53.92, -43.51 54.33, -41.76 55.49 M-41.58 55.77 C-41.72 55.96, -41.75 56.21, -41.86 56.37 M-41.55 55.68 C-41.63 55.91, -41.73 56.03, -41.85 56.39 M-41.88 56.43 C-41.88 56.43, -41.88 56.43, -41.88 56.43 M-41.88 56.43 C-41.88 56.43, -41.88 56.43, -41.88 56.43 M-41.94 56.33 C-41.85 56.82, -41.82 57.33, -41.75 57.59 M-41.86 56.45 C-41.78 56.84, -41.8 57.17, -41.68 57.48 M-41.51 57.5 C-42.5 58.2, -42.41 59.01, -43.54 60.36 M-41.89 57.35 C-42.46 58.6, -42.92 59.55, -43.32 60.48 M-43.43 60.7 C-43.83 61.02, -44.2 61.37, -44.57 62.29 M-43.35 60.62 C-43.82 61.07, -44.04 61.49, -44.47 62.15 M-44.5 62.13 C-44.56 62.3, -44.63 62.48, -44.76 62.63 M-44.47 62.14 C-44.57 62.36, -44.66 62.53, -44.71 62.68 M-44.7 62.66 C-44.7 62.66, -44.7 62.66, -44.7 62.66 M-44.7 62.66 C-44.7 62.66, -44.7 62.66, -44.7 62.66 M-44.76 62.67 C-44.71 62.91, -44.88 63.12, -44.86 63.55 M-44.72 62.61 C-44.83 63.02, -44.88 63.27, -44.92 63.63 M-45.03 63.57 C-44.88 63.95, -44.78 64.19, -44.64 64.65 M-44.96 63.67 C-44.92 63.92, -44.75 64.24, -44.67 64.56 M-44.6 64.49 C-44.51 64.85, -44.39 64.96, -43.97 65.19 M-44.73 64.54 C-44.51 64.74, -44.43 64.84, -44.04 65.3 M-44.11 65.35 C-43.89 65.22, -43.66 65.45, -42.96 65.45 M-44.06 65.23 C-43.78 65.36, -43.46 65.4, -43 65.5 M-43.04 65.52 C-42.98 65.52, -42.88 65.51, -42.84 65.52 M-43.04 65.53 C-42.98 65.53, -42.95 65.52, -42.85 65.51 M-42.87 65.53 C-42.51 65.31, -42.16 65.29, -41.79 65.21 M-42.83 65.56 C-42.6 65.43, -42.33 65.35, -41.9 65.11 M-41.84 65.11 C-41.6 64.8, -41.42 64.5, -41.37 64.33 M-41.86 65.08 C-41.69 64.89, -41.47 64.55, -41.3 64.31 M-41.28 64.24 C-41.18 64.18, -41.19 64.06, -41.03 63.75 M-41.26 64.26 C-41.21 64.16, -41.16 64.08, -41.01 63.79 M-41.03 63.8 C-41.03 63.8, -41.03 63.8, -41.03 63.8 M-41.03 63.8 C-41.03 63.8, -41.03 63.8, -41.03 63.8 M-41.12 63.88 C-40.87 63.33, -40.78 63.17, -40.36 62.15 M-41 63.76 C-40.88 63.36, -40.63 62.85, -40.53 62.03 M-40.36 61.89 C-40.13 61.23, -40.16 60.58, -39.82 59.99 M-40.42 61.99 C-40.26 61.36, -40.1 60.7, -39.88 60.18 M-39.88 60.17 C-39.54 59.76, -39.56 59.42, -39.18 58.5 M-39.78 60.26 C-39.45 59.57, -39.23 58.97, -39.08 58.59 M-38.93 58.72 C-38.83 58.46, -38.54 58.38, -38.24 58.3 M-39.03 58.66 C-38.76 58.55, -38.51 58.44, -38.23 58.26 M-38.15 58.2 C-38.07 58.01, -37.88 57.58, -37.72 57.46 M-38.18 58.23 C-38.1 58.05, -37.98 57.8, -37.72 57.49 M-37.76 57.46 C-37.76 57.46, -37.76 57.46, -37.76 57.46 M-37.76 57.46 C-37.76 57.46, -37.76 57.46, -37.76 57.46 M-37.5 57.81 C-36.39 57.69, -34.49 58.37, -33.4 58.49 M-37.68 57.26 C-36.55 57.9, -35.21 58.03, -33.55 58.65 M-33.29 58.61 C-32.51 59.15, -30.7 59.03, -29.06 59.26 M-33.47 58.9 C-32.62 58.96, -31.41 58.93, -29.09 59.14 M-28.87 58.72 C-27.1 58.59, -25.25 59.02, -24.45 58.44 M-28.8 59.07 C-27.46 59.08, -25.6 59, -24.66 58.63 M-24.29 58.52 C-22.73 58.6, -21.83 57.9, -20.2 57.76 M-24.76 58.53 C-23.15 58.49, -21.88 57.73, -19.98 57.31 M-20.19 57.46 C-20.02 57.73, -19.9 57.91, -19.9 58.28 M-20.17 57.52 C-20.12 57.66, -20.05 57.85, -19.78 58.22 M-19.82 58.23 C-19.82 58.23, -19.82 58.23, -19.82 58.23 M-19.82 58.23 C-19.82 58.23, -19.82 58.23, -19.82 58.23 M-19.78 58.13 C-19.58 58.49, -19.16 58.65, -18.87 58.73 M-19.77 58.24 C-19.56 58.39, -19.45 58.48, -18.83 58.78 M-19.1 59 C-18.39 60.08, -18.06 61.33, -17.2 62.17 M-18.72 58.76 C-18.55 59.4, -18.4 60.27, -17.68 62.08 M-17.62 62.07 C-17.44 62.38, -17.12 63.06, -17.03 63.58 M-17.49 61.95 C-17.34 62.52, -17.26 62.86, -17.08 63.72 M-17.01 63.75 C-16.93 63.84, -16.82 64, -16.71 64.29 M-17.01 63.75 C-16.88 63.94, -16.83 64.13, -16.74 64.26 M-16.76 64.25 C-16.76 64.25, -16.76 64.25, -16.76 64.25 M-16.76 64.25 C-16.76 64.25, -16.76 64.25, -16.76 64.25 M-16.68 64.2 C-16.62 64.47, -16.38 64.96, -16.15 65.01 M-16.81 64.24 C-16.61 64.44, -16.38 64.71, -16.19 65.11 M-16.15 65.01 C-15.89 65.13, -15.61 65.37, -15.3 65.42 M-16.19 65.03 C-15.85 65.24, -15.53 65.37, -15.29 65.45 M-15.27 65.3 C-14.81 65.12, -14.56 65.23, -13.35 64.62 M-15.34 65.43 C-14.75 65.24, -14.26 65.15, -13.43 64.8 M-13.49 64.77 C-13.47 64.75, -13.45 64.73, -13.39 64.61 M-13.49 64.78 C-13.45 64.73, -13.43 64.69, -13.36 64.63 M-13.29 64.52 C-13.23 64.4, -13.26 64.17, -13.11 63.67 M-13.41 64.65 C-13.26 64.39, -13.24 64.06, -13.09 63.59 M-13.04 63.54 C-13.15 63.3, -13.32 63.06, -13.31 62.56 M-13.05 63.62 C-13.12 63.21, -13.23 62.94, -13.27 62.64 M-13.34 62.67 C-13.41 62.47, -13.44 62.36, -13.52 62.09 M-13.31 62.63 C-13.4 62.43, -13.48 62.25, -13.59 62.09 M-13.57 62.1 C-13.57 62.1, -13.57 62.1, -13.57 62.1 M-13.57 62.1 C-13.57 62.1, -13.57 62.1, -13.57 62.1 M-13.41 62.07 C-13.93 61.53, -13.99 61.24, -14.7 60.75 M-13.65 62.11 C-13.84 61.72, -14.02 61.26, -14.63 60.5 M-14.37 60.8 C-14.86 59.62, -15.16 59.37, -16.38 57.54 M-14.43 60.72 C-15.15 59.98, -15.47 59.19, -16.15 57.49 M-16.29 57.57 C-16.25 57.32, -16.27 56.91, -16.18 56.42 M-16.27 57.59 C-16.23 57.37, -16.19 57.04, -16.08 56.38 M-16.16 56.47 C-16.24 56.13, -16.33 56.01, -16.46 55.66 M-16.13 56.45 C-16.19 56.2, -16.26 55.95, -16.4 55.66 M-16.2 56.06 C-15.56 55.21, -14.75 53.94, -13.02 53.15 M-16.32 55.82 C-15.21 54.85, -14.25 54.14, -12.71 53.14 M-12.96 53.35 C-11.84 52.37, -10.97 51.09, -9.88 50.09 M-12.86 52.82 C-11.69 51.79, -10.36 50.66, -9.63 49.9 M-9.37 49.53 C-9.3 48.94, -8.41 48.24, -7.3 45.83 M-9.76 49.63 C-8.84 48.42, -8.07 47.16, -7.4 46.05 M-7.53 46.14 C-6.69 44.48, -5.89 42.81, -5.62 42.08 M-7.11 45.91 C-6.6 44.34, -6.13 42.88, -5.58 41.83 M-5.44 41.84 C-5.23 41.88, -5.12 41.93, -4.75 42.07 M-5.52 41.91 C-5.21 41.97, -4.84 41.97, -4.67 42.04 M-4.69 42.03 C-4.69 42.03, -4.69 42.03, -4.69 42.03 M-4.69 42.03 C-4.69 42.03, -4.69 42.03, -4.69 42.03 M-4.65 42.1 C-4.36 41.94, -4.11 41.71, -3.64 41.68 M-4.67 41.99 C-4.24 41.83, -3.88 41.68, -3.6 41.65 M-3.31 41.36 C-2.61 41.96, -1.61 42.6, -0.46 42.42 M-3.7 41.47 C-2.48 42.09, -1.62 42.14, -0.17 42.5 M-0.22 42.44 C0.44 42.7, 0.97 43.08, 1.43 43.19 M-0.22 42.53 C0.04 42.69, 0.33 42.79, 1.49 43.3 M1.36 43.29 C1.62 43.29, 1.73 43.3, 1.86 43.41 M1.41 43.25 C1.52 43.3, 1.62 43.29, 1.91 43.36 M1.89 43.36 C1.9 43.36, 1.92 43.37, 1.93 43.37 M1.89 43.37 C1.9 43.37, 1.91 43.37, 1.93 43.37 M1.93 43.37 C1.93 43.37, 1.93 43.37, 1.93 43.37 M1.93 43.37 C1.93 43.37, 1.93 43.37, 1.93 43.37 M1.95 43.32 C2.32 43.39, 2.51 43.32, 2.86 43.39 M1.88 43.37 C2.21 43.41, 2.54 43.4, 2.9 43.46 M3.04 43.39 C3.21 43.26, 3.51 43.18, 3.73 43.03 M2.92 43.44 C3.23 43.31, 3.45 43.09, 3.82 42.94 M3.75 43.05 C3.97 42.8, 4.09 42.52, 4.37 42.26 M3.82 42.99 C3.94 42.71, 4.08 42.51, 4.36 42.19 M4.43 42.15 C4.31 41.97, 4.33 41.73, 4.44 41.23 M4.33 42.18 C4.33 41.85, 4.31 41.57, 4.42 41.14 M4.4 41.16 C4.39 41.1, 4.36 41.04, 4.35 40.93 M4.38 41.15 C4.37 41.09, 4.37 41.05, 4.33 40.93 M4.34 40.96 C4.09 40.6, 4.01 40.54, 3.72 40.05 M4.38 40.89 C4.15 40.73, 4.03 40.52, 3.73 40.04 M3.7 40.08 C3.49 40.03, 3.15 39.83, 2.84 39.64 M3.72 40.09 C3.44 39.98, 3.12 39.83, 2.8 39.66 M2.78 39.64 C2.52 39.6, 2.32 39.57, 2.18 39.55 M2.76 39.67 C2.6 39.6, 2.4 39.57, 2.24 39.53 M2.22 39.53 C2.22 39.53, 2.22 39.53, 2.22 39.53 M2.22 39.53 C2.22 39.53, 2.22 39.53, 2.22 39.53 M2.1 39.61 C1.57 39.62, 1.02 39.41, 0.47 39.57 M2.24 39.46 C1.62 39.46, 0.96 39.38, 0.35 39.32 M0.51 39.66 C-0.55 39.37, -0.96 38.94, -3.25 38.85 M0.43 39.35 C-0.42 39.28, -1.21 39.03, -2.9 38.72 M-3.04 38.94 C-3.3 38.5, -3.4 38.3, -3.79 37.89 M-2.97 38.79 C-3.34 38.57, -3.65 38.16, -3.79 38.02 M-3.83 38.03 C-4.01 37.9, -4.41 37.82, -4.54 37.78 M-3.87 38 C-4.08 37.97, -4.26 37.86, -4.64 37.75 M-4.61 37.77 C-4.61 37.77, -4.61 37.77, -4.61 37.77 M-4.61 37.77 C-4.61 37.77, -4.61 37.77, -4.61 37.77 M-5 37.74 C-4.86 36.2, -4.57 34.24, -4.04 32.85 M-4.76 37.74 C-4.67 36.01, -4.37 34.52, -4.58 33.24 M-4.03 33.45 C-4.91 31.71, -4.63 31.17, -5.28 28.9 M-4.47 33.14 C-4.69 32.2, -4.63 30.9, -5.09 29.04 M-5.42 28.97 C-5.92 27.87, -5.62 25.94, -6.64 25.04 M-4.86 28.81 C-5.56 27.85, -5.76 26.74, -6.61 24.41 M-6.61 24.84 C-7.5 23.25, -7.5 21.98, -8.54 20.89 M-6.45 24.66 C-7.08 23.42, -7.61 22.17, -8.35 20.61 M-8.61 20.67 C-8.41 20.39, -8.19 20.19, -7.81 20.04 M-8.62 20.69 C-8.38 20.54, -8.26 20.37, -7.87 20.03 M-7.9 20.03 C-7.9 20.03, -7.9 20.03, -7.9 20.03 M-7.9 20.03 C-7.9 20.03, -7.9 20.03, -7.9 20.03 M-7.97 19.96 C-7.75 19.84, -7.71 19.61, -7.59 18.98 M-7.89 20.01 C-7.82 19.74, -7.73 19.48, -7.51 19 M-7.78 19.04 C-6.47 18.63, -5.96 17.72, -4.4 16.91 M-7.54 18.9 C-6.93 18.42, -6.31 18.09, -4.77 16.94 M-4.53 17.13 C-4.11 16.47, -3.43 16.4, -3.26 15.87 M-4.78 17.02 C-4.38 16.73, -3.96 16.48, -3.19 16.1 M-3.12 16.02 C-2.95 15.94, -2.8 15.79, -2.74 15.68 M-3.14 16.01 C-3 15.95, -2.89 15.81, -2.74 15.68 M-2.72 15.7 C-2.72 15.7, -2.72 15.7, -2.72 15.7 M-2.72 15.7 C-2.72 15.7, -2.72 15.7, -2.72 15.7 M-2.54 15.59 C-2.48 15.12, -2.14 15.06, -1.98 13.87 M-2.78 15.68 C-2.41 15.21, -2.15 14.76, -1.81 13.93 M-1.8 13.94 C-1.81 13.71, -2.02 13.47, -2.14 13.06 M-1.8 13.98 C-1.85 13.81, -1.98 13.61, -2.06 13.08 M-2 13.1 C-2.21 13, -2.49 12.71, -2.83 12.38 M-2.12 13.11 C-2.33 12.81, -2.64 12.63, -2.84 12.39 M-2.83 12.4 C-2.91 12.37, -2.97 12.31, -3.1 12.25 M-2.83 12.4 C-2.92 12.34, -3.03 12.3, -3.11 12.27 M-3.07 12.23 C-3.36 12.19, -3.76 12.33, -4.06 12.3 M-3.08 12.22 C-3.46 12.28, -3.67 12.26, -4.2 12.23 M-4.16 12.31 C-4.42 12.22, -4.48 12.46, -5.04 12.76 M-4.11 12.23 C-4.47 12.4, -4.91 12.62, -5.14 12.71 M-5.04 12.73 C-5.21 12.84, -5.37 12.98, -5.52 13.07 M-5.1 12.74 C-5.24 12.86, -5.38 12.97, -5.52 13.07 M-5.51 13.06 C-5.51 13.06, -5.51 13.06, -5.51 13.06 M-5.51 13.06 C-5.51 13.06, -5.51 13.06, -5.51 13.06 M-5.37 13.18 C-6.19 13.62, -6.59 14.27, -6.69 14.23 M-5.53 13.09 C-6.05 13.58, -6.47 14.07, -6.73 14.47 M-6.45 14.32 C-7.67 15.3, -7.78 15.8, -9.5 16.48 M-6.81 14.27 C-7.59 15.19, -8.25 15.57, -9.2 16.76 M-9.28 16.65 C-9.45 16.73, -9.88 16.76, -10.5 16.93 M-9.2 16.69 C-9.66 16.82, -10.01 16.84, -10.45 16.81 M-10.43 16.93 C-10.62 16.98, -10.89 17.23, -11.14 17.35 M-10.44 16.89 C-10.7 17.04, -10.94 17.25, -11.17 17.38 M-11.13 17.38 C-11.13 17.38, -11.13 17.38, -11.13 17.38 M-11.13 17.38 C-11.13 17.38, -11.13 17.38, -11.13 17.38 M-11.56 17.36 C-12.63 16.04, -13.79 15.8, -14.27 14.05 M-11.17 17.6 C-11.87 16.36, -12.83 15.85, -14.52 14.52 M-14.22 14.35 C-15.84 13.17, -17.38 12.63, -18.47 12.19 M-14.32 14.59 C-16.12 13.78, -17.35 12.77, -18.4 12.25 M-18.3 11.98 C-20.25 11.12, -21.42 11.24, -22.72 10.18 M-18.21 12.29 C-19.53 11.69, -21.07 10.92, -22.4 10.47 M-22.35 10.37 C-23.84 10.4, -24.17 10.29, -26.65 9.78 M-22.5 10.53 C-23.73 10.34, -24.35 10.36, -27.14 9.96 M-26.91 9.73 C-26.96 9.56, -27.02 9.27, -26.93 8.83 M-26.92 9.77 C-26.99 9.55, -26.95 9.32, -26.99 8.91 M-26.93 8.95 C-27.13 8.61, -27.39 8.32, -27.54 7.94 M-26.95 8.96 C-27.16 8.68, -27.29 8.39, -27.66 7.91 M-27.42 7.62 C-27.77 7.2, -27.87 6.54, -27.33 4.4 M-27.49 8.12 C-27.4 6.83, -27.57 5.57, -27.41 4.51 M-27.53 4.58 C-27.21 4.2, -27.33 3.61, -27.1 2.84 M-27.43 4.51 C-27.36 3.76, -27.26 3.08, -27.07 2.61 M-27.08 2.69 C-27.1 2.5, -27.18 2.39, -27.14 2.13 M-27.15 2.7 C-27.14 2.5, -27.11 2.31, -27.13 2.13 M-27.13 2.13 C-27.13 2.13, -27.13 2.13, -27.13 2.13 M-27.13 2.13 C-27.13 2.13, -27.13 2.13, -27.13 2.13 M-27.02 2.06 C-27.42 1.79, -27.51 1.2, -27.66 0.78 M-27.18 2.11 C-27.31 1.69, -27.49 1.32, -27.69 0.7 M-27.78 0.64 C-28.03 0.37, -28.53 0.37, -28.9 0.02 M-27.7 0.76 C-28.06 0.5, -28.42 0.34, -29 -0.06 M-29 0.01 C-29.01 0.01, -29.02 0.01, -29.03 0 M-29 0.01 C-29.01 0.01, -29.01 0.01, -29.03 0 M-29.03 0 C-29.03 0, -29.03 0, -29.03 0 M-29.03 0 C-29.03 0, -29.03 0, -29.03 0" stroke="#326ce5" stroke-width="1" fill="none"></path></g></g><g stroke-linecap="round"><g transform="translate(83.30077514136224 42.71235779983499) rotate(0 -15.650453839769852 5.959024893436549)" fill-rule="evenodd"><path d="M-21.31 5.32 C-21.31 5.32, -21.31 5.32, -21.31 5.32 M-21.31 5.32 C-21.31 5.32, -21.31 5.32, -21.31 5.32 M-18.79 7.17 C-16.65 4.45, -12.84 2.54, -11.27 -0.56 M-17.94 7.47 C-16.96 6.4, -15.14 4.85, -12.23 0.79 M-13.93 10.29 C-11.49 7.41, -9.71 4.53, -7.59 2.35 M-14.95 9.56 C-12.64 8, -11.1 5.13, -8.41 1.83 M-21.74 5.2 C-21.74 5.2, -21.74 5.2, -21.74 5.2 M-21.74 5.2 C-21.74 5.2, -21.74 5.2, -21.74 5.2 M-10.42 11.15 C-12.17 8.09, -15.06 5.17, -19.24 3.22 M-9.83 9.6 C-12.4 8.01, -15.65 5.11, -18.78 2.53 M-10.25 4.9 C-11.49 3.56, -13.47 1.16, -15.16 0.34 M-10.63 4.23 C-12.49 2.74, -13.84 1.02, -14.71 0.46" stroke="#326ce5" stroke-width="0.5" fill="none"></path><path d="M-10.8 0.96 C-9.99 3.63, -10.86 6.71, -10.01 9.78 M-9.65 0.15 C-9.69 2.7, -10.72 6.22, -10.15 9.97 M-10.54 9.98 C-10.55 9.98, -10.56 9.98, -10.59 9.98 M-10.55 9.98 C-10.56 9.98, -10.58 9.98, -10.59 9.98 M-10.59 9.98 C-10.59 9.98, -10.59 9.98, -10.59 9.98 M-10.59 9.98 C-10.59 9.98, -10.59 9.98, -10.59 9.98 M-10.74 10.09 C-10.81 10.45, -11.17 10.77, -11.47 11.29 M-10.67 10.06 C-10.84 10.44, -11.31 10.92, -11.56 11.44 M-11.52 11.44 C-11.77 11.32, -12.4 11.46, -13.16 11.29 M-11.48 11.34 C-12.11 11.41, -12.86 11.32, -13.21 11.18 M-13.82 11.95 C-16.9 9.95, -19.02 7.09, -20.46 4.98 M-12.92 11.64 C-15.97 9.43, -17.93 7.97, -21.65 5.38 M-21.43 5.47 C-21.43 5.47, -21.43 5.47, -21.43 5.47 M-21.43 5.47 C-21.43 5.47, -21.43 5.47, -21.43 5.47 M-21.58 5.06 C-19.59 4.27, -18.38 3.29, -17.17 2.44 M-21.51 5.36 C-19.91 4.22, -18.68 3.57, -17.09 2.06 M-17.37 1.94 C-14.62 1.07, -13.59 1.06, -12.26 0.87 M-17.3 2.49 C-15.58 1.72, -13.69 1.21, -11.92 0.18 M-11.94 0.49 C-11.24 0.4, -10.87 0.29, -10.08 0.01 M-12.06 0.29 C-11.32 0.23, -10.53 0.15, -10.08 -0.03 M-9.98 0 C-9.98 0, -9.97 0, -9.97 0 M-9.98 0 C-9.98 0, -9.97 0, -9.97 0 M-9.97 0 C-9.97 0, -9.97 0, -9.97 0 M-9.97 0 C-9.97 0, -9.97 0, -9.97 0" stroke="#326ce5" stroke-width="1" fill="none"></path></g></g><g stroke-linecap="round"><g transform="translate(78.22313207952811 42.48069970541741) rotate(0 5.897011992415116 5.717358901547186)" fill-rule="evenodd"><path d="M0 0 C0 0, 0 0, 0 0 M0 0 C0 0, 0 0, 0 0 M0.19 6.07 C1.65 3.78, 3.53 2.21, 4.46 1.07 M0.46 5.4 C1.31 4.32, 2.84 3.51, 4.24 1.2 M-0.19 10.74 C2.12 9.46, 4.9 6.77, 9.05 2.93 M0.91 11 C3.29 8.3, 6.9 4.17, 7.99 3.32 M4.42 11.81 C6.68 10.54, 9.66 7.65, 10.16 4.75 M4.69 12.41 C7.04 10.57, 8.97 7.48, 11.37 5.97 M1.77 11.68 C1.77 11.68, 1.77 11.68, 1.77 11.68 M1.77 11.68 C1.77 11.68, 1.77 11.68, 1.77 11.68 M5.4 9.46 C4.52 9.08, 3.98 8.72, 2.94 7.28 M5.01 9.39 C4.64 8.81, 3.8 8.26, 2.91 7.31 M9.63 7.12 C6.09 4.3, 2.64 1.7, 0.62 0.06 M8.08 7.32 C6.71 4.99, 4.06 2.87, -0.07 0.03" stroke="#326ce5" stroke-width="0.5" fill="none"></path><path d="M0 0 C0 0, 0 0, 0 0 M0 0 C0 0, 0 0, 0 0 M-0.13 -0.28 C1.93 1.06, 3.26 0.63, 6.09 2.44 M0.07 0.14 C1.53 0.56, 2.96 0.56, 6.26 1.73 M5.66 2.39 C8.14 2.95, 9.98 4.53, 11.13 4.99 M6 1.59 C7.59 2.61, 8.68 3.88, 11.39 5.52 M12.06 5.87 C8.77 7.38, 5.34 9.72, 2.56 11.72 M11.85 5.97 C9.31 6.43, 7.28 7.95, 3.41 10.89 M3.29 11.26 C3.29 11.26, 3.29 11.26, 3.29 11.26 M3.29 11.26 C3.29 11.26, 3.29 11.26, 3.29 11.26 M3.41 11.08 C2.89 11.23, 2.23 11.54, 1.44 11.46 M3.36 11.21 C2.77 11.37, 2.3 11.35, 1.51 11.41 M1.5 11.43 C1.38 11.42, 1.16 11.17, 0.75 10.86 M1.54 11.49 C1.31 11.27, 1.11 11.16, 0.83 10.89 M0.76 10.9 C0.74 10.52, 0.68 10.22, 0.6 9.98 M0.81 10.88 C0.7 10.57, 0.68 10.26, 0.54 10.01 M0.02 10.84 C-0.36 6.65, 0.84 4.56, 1 0.07 M1.04 9.82 C0.58 8.15, 0.59 5.56, -0.26 0.13 M0 0 C0 0, 0 0, 0 0 M0 0 C0 0, 0 0, 0 0" stroke="#326ce5" stroke-width="1" fill="none"></path></g></g><g stroke-linecap="round"><g transform="translate(61.45740870220186 51.7886675768099) rotate(0 0.22507560967471818 6.1944529645824105)" fill-rule="evenodd"><path d="M-2.69 0.31 C-2.69 0.31, -2.69 0.31, -2.69 0.31 M-2.69 0.31 C-2.69 0.31, -2.69 0.31, -2.69 0.31 M-4.01 6.98 C-2.07 6.3, -1.22 4.52, -0.24 3.09 M-3.6 7.47 C-2.05 6.01, -1.33 4.73, 0.57 3.18 M-3.11 14.36 C-1.97 12.03, 0.55 9.36, 3.17 6 M-3.71 14.18 C-2.22 11.36, -0.62 9.29, 3.45 5.03 M-5.36 12.26 C-5.36 12.26, -5.36 12.26, -5.36 12.26 M-5.36 12.26 C-5.36 12.26, -5.36 12.26, -5.36 12.26 M-0.37 11.23 C-1.92 9.7, -3.36 9.35, -4.82 7.01 M-0.27 11.38 C-2 9.81, -3.59 8.51, -4.83 7.29 M4.52 10.37 C2.41 7.58, 0.31 6.69, -2.24 3.94 M3.34 9.37 C2.16 7.45, 0.3 6.13, -3.54 3.38" stroke="#326ce5" stroke-width="0.5" fill="none"></path><path d="M-2.19 -0.21 C-1.03 0.63, 1.79 3.05, 5.02 6.42 M-1.94 -0.25 C-0.33 2.47, 2.88 4.29, 4.65 6.7 M5.07 6.68 C5.07 6.69, 5.06 6.71, 5.07 6.72 M5.07 6.68 C5.07 6.69, 5.06 6.7, 5.07 6.72 M5.07 6.72 C5.07 6.72, 5.07 6.72, 5.07 6.72 M5.07 6.72 C5.07 6.72, 5.07 6.72, 5.07 6.72 M5.13 6.74 C5.21 7.11, 5.44 7.57, 5.68 8.25 M5.15 6.68 C5.19 7.25, 5.41 7.94, 5.53 8.35 M5.74 8.29 C5.08 8.91, 4.83 9.28, 4.52 9.49 M5.64 8.39 C5.07 8.82, 4.73 9.22, 4.43 9.59 M4.4 9.6 C4.41 9.61, 4.41 9.62, 4.41 9.63 M4.41 9.6 C4.41 9.61, 4.41 9.61, 4.41 9.63 M3.99 9.74 C1.98 9.9, -2.53 10.62, -5.13 12.13 M4.68 9.37 C0.91 10.24, -1.68 11.44, -4.86 12.64 M-5.2 12.39 C-5.2 12.39, -5.2 12.39, -5.2 12.39 M-5.2 12.39 C-5.2 12.39, -5.2 12.39, -5.2 12.39 M-4.63 11.92 C-5.59 10.54, -5.23 8.56, -4.8 5.5 M-5.29 12.46 C-4.75 10.83, -4.86 8.77, -4.76 6.1 M-4.5 6.57 C-4.53 4.3, -3.36 1.5, -1.94 0.52 M-5.06 6.06 C-4.14 4.31, -3.59 2.1, -2.53 0.14 M-2.42 -0.01 C-2.42 0, -2.42 0, -2.42 0 M-2.42 -0.01 C-2.42 0, -2.42 0, -2.42 0 M-2.42 0 C-2.42 0, -2.42 0, -2.42 0 M-2.42 0 C-2.42 0, -2.42 0, -2.42 0" stroke="#326ce5" stroke-width="1" fill="none"></path></g></g><g stroke-linecap="round"><g transform="translate(99.38024252461184 51.79018711051012) rotate(0 -9.497236388384067 6.030555519943476)" fill-rule="evenodd"><path d="M-14.04 6.34 C-14.04 6.34, -14.04 6.34, -14.04 6.34 M-14.04 6.34 C-14.04 6.34, -14.04 6.34, -14.04 6.34 M-12.51 10.45 C-8.87 6.89, -6.55 5.09, -4.06 2.98 M-12.64 10.81 C-9.44 7.18, -7.43 5.16, -4.67 1.98 M-8.57 12.14 C-6.81 10.62, -6.33 8.31, -3.23 6.53 M-8 11.93 C-6.24 9.28, -4.28 7.95, -3.13 6.22 M-13.65 9.61 C-13.65 9.61, -13.65 9.61, -13.65 9.61 M-13.65 9.61 C-13.65 9.61, -13.65 9.61, -13.65 9.61 M-4.8 13.11 C-7.62 11.16, -9.03 7.99, -12.82 5.3 M-3.83 12.69 C-6.23 11.22, -7.44 9.46, -12.53 5.1 M-1.57 9.02 C-4.81 6.69, -5.73 5.95, -10.4 2.45 M-1.29 9.33 C-4.59 6.65, -7.52 4.9, -9.87 1.85" stroke="#326ce5" stroke-width="0.5" fill="none"></path><path d="M-6.91 0 C-6.91 0, -6.91 0, -6.91 0 M-6.91 0 C-6.91 0, -6.91 0, -6.91 0 M-6.87 0.49 C-6.74 1.21, -5.6 4.01, -4.96 5.43 M-6.75 0.11 C-6.14 1.02, -5.7 2.57, -4.42 6 M-4.14 5.97 C-3.85 8.82, -4.47 10.31, -4.27 12.25 M-4.43 5.8 C-4.61 8.4, -4.21 10.6, -3.93 12.36 M-3.92 12.36 C-6.66 12.19, -8.89 11.68, -14.34 10.26 M-4.29 12.03 C-6.41 11.73, -7.89 10.95, -13.71 9.89 M-13.67 9.59 C-13.67 9.58, -13.67 9.57, -13.67 9.56 M-13.67 9.59 C-13.67 9.58, -13.67 9.56, -13.67 9.55 M-13.67 9.55 C-13.67 9.55, -13.67 9.55, -13.67 9.55 M-13.67 9.55 C-13.67 9.55, -13.67 9.55, -13.67 9.55 M-13.65 9.71 C-14.18 9.09, -14.62 8.73, -14.91 8.37 M-13.72 9.5 C-14.07 9.26, -14.36 8.92, -14.82 8.4 M-14.85 8.27 C-14.63 7.83, -14.49 7.43, -14.28 6.7 M-14.94 8.32 C-14.67 7.86, -14.62 7.49, -14.38 6.71 M-15.07 5.81 C-11.87 4.48, -9.65 3.4, -7.62 -0.3 M-14.22 7.14 C-12.55 5.41, -11.46 3.95, -6.68 0.39 M-6.9 0.02 C-6.9 0.01, -6.91 0.01, -6.91 0 M-6.9 0.02 C-6.91 0.02, -6.91 0.01, -6.91 0 M-6.91 0 C-6.91 0, -6.91 0, -6.91 0 M-6.91 0 C-6.91 0, -6.91 0, -6.91 0" stroke="#326ce5" stroke-width="1" fill="none"></path></g></g><g stroke-linecap="round"><g transform="translate(75.82424455702824 58.9001966694577) rotate(0 -0.25895955837370366 3.274267413838814)" fill-rule="evenodd"><path d="M-1.6 -0.06 C-1.6 -0.06, -1.6 -0.06, -1.6 -0.06 M-1.6 -0.06 C-1.6 -0.06, -1.6 -0.06, -1.6 -0.06 M-2.5 6.98 C-0.49 4.32, 2.1 2.86, 2.85 0.64 M-1.98 6.59 C-0.96 4.83, 0.48 3.69, 2.47 0.79 M-3.15 5.14 C-3.15 5.14, -3.15 5.14, -3.15 5.14 M-3.15 5.14 C-3.15 5.14, -3.15 5.14, -3.15 5.14 M2.15 5.25 C0.88 3.83, 0.02 2.48, -2.48 0.44 M2.37 5.03 C1.36 3.36, -0.31 1.93, -1.89 0.88" stroke="#326ce5" stroke-width="0.5" fill="none"></path><path d="M-1.78 -0.29 C-0.28 -0.06, 0.76 -0.07, 1.48 0.2 M-1.77 0.1 C-0.52 0.01, 0.24 0.02, 1.5 -0.03 M1.64 -0.24 C1.69 0.64, 2.74 1.1, 3.03 2.15 M1.46 0.1 C1.88 0.81, 2.58 1.54, 3.3 2.5 M3.29 2.62 C3.36 2.92, 2.76 3.6, 2.55 5.53 M3.21 2.25 C3.15 3.13, 2.93 3.95, 2.6 5.21 M2.6 5.18 C1.71 5.61, 0.73 6.12, 0.05 6.38 M2.5 5.23 C1.49 5.89, 0.34 6.36, -0.06 6.69 M-0.32 6.84 C-0.88 6.29, -1.69 5.63, -2.66 5.54 M-0.29 6.66 C-0.65 6.27, -1.23 6.12, -2.83 5.26 M-3.04 5.22 C-2.82 4.11, -3.36 3.14, -3.82 2.57 M-2.85 5.42 C-3.2 4.21, -3.47 3, -3.48 2.43 M-3.28 2.17 C-3.11 1.46, -2.5 1.01, -1.56 -0.06 M-3.65 2.27 C-2.84 1.57, -2.19 0.86, -1.5 -0.04 M-1.66 0 C-1.66 0, -1.66 0, -1.66 0 M-1.66 0 C-1.66 0, -1.66 0, -1.66 0" stroke="#326ce5" stroke-width="1" fill="none"></path></g></g><g stroke-linecap="round"><g transform="translate(85.25508455983856 67.0085181787583) rotate(0 3.017865765399449 5.886151404688846)" fill-rule="evenodd"><path d="M-2.39 0.57 C-2.39 0.57, -2.39 0.57, -2.39 0.57 M-2.39 0.57 C-2.39 0.57, -2.39 0.57, -2.39 0.57 M-0.92 4.92 C0.07 3.84, 0.62 3.13, 0.99 2.15 M-0.79 4.75 C0.01 3.87, 0.67 3.08, 1.24 2.59 M0.36 8.2 C2.96 7.19, 3.98 5.19, 6.6 2.14 M0.87 8.53 C2.69 6.86, 4.87 4.13, 6.41 3.13 M0.74 11.35 C0.74 11.35, 0.74 11.35, 0.74 11.35 M0.74 11.35 C0.74 11.35, 0.74 11.35, 0.74 11.35 M4.19 8.76 C2.3 7.85, -0.59 5.89, -3.03 3.53 M4.25 9.29 C1.96 6.72, -0.59 4.79, -2.58 2.86 M6.7 5.83 C4.39 4.35, 3.53 3.77, -1.33 0.02 M7 5.48 C4.34 3.64, 1.77 2.45, -1.17 -0.21 M9.52 2.87 C8.35 2.05, 7.76 1.69, 7.36 1.11 M9.36 3.08 C8.59 2.25, 8.03 1.74, 7.16 1.01" stroke="#326ce5" stroke-width="0.5" fill="none"></path><path d="M-1.28 0 C-1.28 0, -1.28 0, -1.28 0 M-1.28 0 C-1.28 0, -1.28 0, -1.28 0 M-1.31 -0.03 C-1.18 0.04, -1.11 -0.03, -0.92 0.01 M-1.26 -0.02 C-1.14 -0.01, -1.01 0, -0.87 -0.01 M-0.09 0.69 C2.56 -0.14, 6.49 1.13, 9.62 1.21 M-1.3 0.22 C1.38 0.47, 3.89 0.81, 8.57 2 M9.02 1.67 C9.02 1.67, 9.02 1.67, 9.02 1.67 M9.02 1.67 C9.02 1.67, 9.02 1.67, 9.02 1.67 M9.2 1.83 C8.54 3.02, 7.77 4.21, 7.9 4.32 M9.01 1.74 C8.4 2.75, 8.06 3.84, 7.6 4.75 M7.55 4.95 C7.19 5.16, 6.96 5.43, 6.11 7.57 M7.77 4.56 C7.23 5.2, 6.69 6.03, 5.95 7.27 M5.68 7.24 C5.03 7.98, 4.67 8.66, 3.62 9.8 M5.79 7.42 C5.08 8.25, 4.39 9.14, 3.64 9.56 M3.82 9.62 C2.9 10.4, 1.98 11.1, 1 11.53 M3.76 9.67 C2.61 10.54, 1.69 11.19, 1 11.56 M1.69 11.16 C0.67 8.09, -2.53 4.11, -3.59 3.34 M1.34 11.8 C-0.23 9.31, -0.78 7.05, -2.59 2.78 M-2.74 2.38 C-2.74 2.38, -2.74 2.38, -2.74 2.38 M-2.74 2.38 C-2.74 2.38, -2.74 2.38, -2.74 2.38 M-2.84 2.25 C-2.63 2.11, -2.52 1.46, -2.51 0.98 M-2.71 2.33 C-2.7 2.01, -2.63 1.53, -2.65 0.81 M-2.49 0.74 C-2.09 0.54, -1.68 0.14, -1.38 0.08 M-2.55 0.91 C-2.35 0.69, -2.1 0.53, -1.27 -0.03 M-1.28 0.04 C-1.28 0.03, -1.28 0.02, -1.27 0 M-1.28 0.04 C-1.28 0.03, -1.28 0.02, -1.28 0 M-1.28 0 C-1.28 0, -1.28 0, -1.28 0 M-1.28 0 C-1.28 0, -1.28 0, -1.28 0" stroke="#326ce5" stroke-width="1" fill="none"></path></g></g><g stroke-linecap="round"><g transform="translate(76.33117121077362 67.24563476982922) rotate(0 -13.171845468964534 5.916801014073599)" fill-rule="evenodd"><path d="M-19.18 1.88 C-19.18 1.88, -19.18 1.88, -19.18 1.88 M-19.18 1.88 C-19.18 1.88, -19.18 1.88, -19.18 1.88 M-16.53 5.31 C-15.55 3.92, -14.41 1.72, -13.19 0.91 M-17.02 4.99 C-15.34 3.39, -13.74 2.05, -12.63 0.87 M-13.75 8.83 C-13.09 6.55, -11.21 3.96, -8.85 1.57 M-14.32 8.72 C-12.16 5.87, -9.73 2.88, -7.39 1.17 M-12.15 11.58 C-9.35 8.85, -7.67 7.56, -6.27 5.07 M-11.78 11.02 C-9.06 8.89, -7.52 6.58, -5.16 4.9 M-11.27 11.45 C-11.27 11.45, -11.27 11.45, -11.27 11.45 M-11.27 11.45 C-11.27 11.45, -11.27 11.45, -11.27 11.45 M-9.68 8.06 C-11.58 4.39, -14.86 2.09, -17.15 0.99 M-9.03 7.92 C-11.63 5.88, -13.57 4.38, -17.98 0.21 M-7.63 3.72 C-9.41 2.86, -10.47 0.7, -12.39 -0.43 M-7.87 4.05 C-9.39 2.55, -10.36 1.15, -12.55 -0.32" stroke="#326ce5" stroke-width="0.5" fill="none"></path><path d="M-8.85 0 C-8.85 0, -8.85 0, -8.85 0 M-8.85 0 C-8.85 0, -8.85 0, -8.85 0 M-8.97 -0.01 C-8.26 0.12, -8.12 0.36, -7.43 0.83 M-8.92 0.03 C-8.38 0.27, -7.86 0.59, -7.52 0.84 M-7.36 0.7 C-7.54 1.26, -7.4 1.96, -7.4 2.23 M-7.43 0.76 C-7.42 1.29, -7.39 1.68, -7.28 2.37 M-7.33 2.33 C-7.33 2.35, -7.33 2.36, -7.33 2.38 M-7.33 2.34 C-7.33 2.35, -7.33 2.36, -7.33 2.38 M-6.84 2.52 C-7.71 4.11, -8.51 7.76, -12.11 12.1 M-7.12 1.89 C-8.55 5.34, -9.7 8.22, -10.8 11.08 M-11.13 11.57 C-11.13 11.57, -11.13 11.57, -11.13 11.57 M-11.13 11.57 C-11.13 11.57, -11.13 11.57, -11.13 11.57 M-11.3 10.99 C-12.6 10.04, -13.92 8.75, -15.66 7.63 M-10.94 11.53 C-12.07 10.63, -13.15 9.33, -16.13 7.43 M-16 7.52 C-16.75 5.78, -17.68 3.69, -19.26 2.1 M-15.91 7.07 C-16.28 5.93, -17.08 4.73, -19.19 1.97 M-19.5 2.68 C-16.71 0.54, -14.88 0.04, -8.25 -0.27 M-18.86 1.43 C-15.75 1.33, -12.34 0.72, -8.8 0.29 M-9.19 0.03 C-9.19 0.03, -9.19 0.03, -9.19 0.03 M-9.19 0.03 C-9.19 0.03, -9.19 0.03, -9.19 0.03 M-9.22 0.04 C-9.09 0.06, -9.07 0.05, -8.83 0.02 M-9.21 0.03 C-9.1 0.03, -9.02 0.02, -8.87 0.04 M-8.87 0.03 C-8.86 0.02, -8.86 0.01, -8.85 0 M-8.86 0.03 C-8.86 0.02, -8.85 0.01, -8.85 0 M-8.85 0 C-8.85 0, -8.85 0, -8.85 0 M-8.85 0 C-8.85 0, -8.85 0, -8.85 0" stroke="#326ce5" stroke-width="1" fill="none"></path></g></g><g stroke-linecap="round"><g transform="translate(81.18556004283369 71.05506122675803) rotate(0 -5.182044737574699 5.337351237539849)" fill-rule="evenodd"><path d="M-6.74 0.77 C-6.74 0.77, -6.74 0.77, -6.74 0.77 M-6.74 0.77 C-6.74 0.77, -6.74 0.77, -6.74 0.77 M-10.05 10.67 C-7.71 7.68, -5.77 3.28, -1.83 2.77 M-10.17 10.78 C-7.57 7.69, -5.13 5.45, -2.31 1.9 M-5.04 11.51 C-4.37 10.09, -2.58 8.02, -0.23 6.42 M-5.48 11.49 C-3.99 9.63, -2.64 8.74, -0.37 6.35 M-12.07 9.31 C-12.07 9.31, -12.07 9.31, -12.07 9.31 M-12.07 9.31 C-12.07 9.31, -12.07 9.31, -12.07 9.31 M-5.54 9.94 C-6.94 9.03, -7.7 8.23, -9.25 6.02 M-5.6 9.46 C-6.6 8.79, -7.34 8, -9.6 6.37 M-0.57 9.05 C-2.64 7.4, -6.57 4.56, -7.48 2.58 M-0.1 8.82 C-3.27 7.07, -6.22 4.46, -7.32 2.78" stroke="#326ce5" stroke-width="0.5" fill="none"></path><path d="M-5.45 0 C-5.45 0, -5.45 0, -5.45 0 M-5.45 0 C-5.45 0, -5.45 0, -5.45 0 M-5.45 0.09 C-5.18 0.02, -4.85 0.19, -4.52 0.27 M-5.43 -0.01 C-5.14 0.09, -4.81 0.12, -4.51 0.25 M-4.59 0.15 C-4.39 0.4, -4.1 0.57, -3.98 0.89 M-4.56 0.23 C-4.38 0.39, -4.27 0.58, -3.89 0.89 M-3.91 0.88 C-3.9 0.88, -3.89 0.88, -3.87 0.88 M-3.91 0.88 C-3.9 0.88, -3.89 0.88, -3.87 0.88 M-3.73 1.53 C-3.29 3.83, -0.8 4.18, 1.5 9.95 M-4.36 1.01 C-2.97 2.93, -2.14 4.85, 0.47 9.88 M0.87 9.61 C0.45 9.6, 0.1 10.08, -1.08 10.17 M0.95 9.56 C0.23 9.85, -0.31 9.96, -1.01 10.2 M-0.97 10.19 C-0.97 10.19, -0.97 10.19, -0.97 10.19 M-0.97 10.19 C-0.97 10.19, -0.97 10.19, -0.97 10.19 M-0.76 10.25 C-2.28 10.4, -4.08 10.23, -6.03 10.19 M-1.15 10.42 C-2.81 10.46, -4.5 10.33, -6.14 10.45 M-5.83 10.69 C-7.91 10.24, -9.12 10.71, -11.87 9.75 M-6.52 10.72 C-8.36 10.47, -10.49 10.08, -11.56 9.89 M-11.66 10.36 C-9.96 8, -10.34 5.64, -7.54 1.21 M-11.84 9.46 C-10.25 6.98, -9.55 4.73, -6.97 0.47 M-6.85 0.9 C-6.85 0.9, -6.85 0.9, -6.85 0.9 M-6.85 0.9 C-6.85 0.9, -6.85 0.9, -6.85 0.9 M-6.81 0.88 C-6.56 0.58, -6.27 0.54, -5.55 -0.05 M-6.87 0.92 C-6.56 0.7, -6.1 0.37, -5.46 0.04 M-5.41 0.05 C-5.42 0.04, -5.43 0.02, -5.45 0 M-5.42 0.06 C-5.43 0.03, -5.44 0.01, -5.45 0 M-5.45 0 C-5.45 0, -5.45 0, -5.45 0 M-5.45 0 C-5.45 0, -5.45 0, -5.45 0" stroke="#326ce5" stroke-width="1" fill="none"></path></g></g><g stroke-linecap="round"><g transform="translate(192.0626891493705 111.72611088517988) rotate(0 19.013971748466588 15.177331915439709)" fill-rule="evenodd"><path d="M-0.15 -6.58 L-1.22 35.92 L6.94 41.49 L18.26 39.33 L36.58 38.07 L38.11 -5.8 L31.92 -7.76 L16.44 -10.56 L7.82 -8.4 L1.88 -6.99" stroke="none" stroke-width="0" fill="#228be6" fill-rule="evenodd"></path><path d="M0.54 -4.06 C0.47 2.11, -0.25 24.89, -0.24 31.42 C-0.22 37.95, 0.48 34.15, 0.64 35.1 C0.81 36.04, -0.42 36.38, 0.75 37.09 C1.92 37.81, 4.36 38.91, 7.67 39.39 C10.99 39.88, 16.68 40.1, 20.64 40.01 C24.61 39.93, 28.77 39.5, 31.46 38.9 C34.14 38.3, 35.66 36.81, 36.75 36.42 C37.84 36.03, 37.8 37.4, 38.01 36.58 C38.22 35.75, 37.96 38.09, 38.01 31.46 C38.06 24.84, 38.44 2.88, 38.32 -3.17 C38.2 -9.22, 37.65 -4.01, 37.27 -4.85 C36.9 -5.68, 37.27 -7.65, 36.05 -8.16 C34.84 -8.67, 32.91 -7.64, 29.97 -7.91 C27.04 -8.19, 22.01 -9.75, 18.45 -9.82 C14.9 -9.9, 11.51 -8.86, 8.64 -8.38 C5.78 -7.9, 2.55 -7.59, 1.27 -6.94 C-0.02 -6.3, 1.13 -4.63, 0.94 -4.51 C0.74 -4.39, 0.14 -6.12, 0.12 -6.23 M-0.63 -4.53 C-0.9 1.85, -1.5 25.96, -1.36 32.7 C-1.22 39.43, -0.07 35.02, 0.22 35.86 C0.51 36.7, -1.14 37.1, 0.38 37.74 C1.89 38.38, 6.27 39.51, 9.31 39.72 C12.35 39.93, 14.79 38.77, 18.61 38.99 C22.44 39.21, 29.41 41.61, 32.24 41.04 C35.07 40.47, 34.88 36.48, 35.58 35.57 C36.27 34.66, 35.88 35.81, 36.41 35.58 C36.95 35.34, 38.39 40.54, 38.8 34.15 C39.21 27.76, 38.78 3.76, 38.87 -2.77 C38.95 -9.3, 39.67 -4.51, 39.31 -5.03 C38.95 -5.54, 38.39 -5.38, 36.71 -5.87 C35.03 -6.35, 32.18 -7.14, 29.2 -7.96 C26.22 -8.78, 22.1 -10.93, 18.82 -10.77 C15.53 -10.62, 12.66 -7.79, 9.5 -7.04 C6.33 -6.3, 1.39 -6.84, -0.16 -6.3 C-1.72 -5.75, 0.34 -3.75, 0.17 -3.79 C-0.01 -3.83, -1.45 -6.61, -1.19 -6.53" stroke="#0a11d3" stroke-width="1" fill="none"></path></g></g><g stroke-linecap="round"><g transform="translate(192.33624046980788 134.87676004130958) rotate(0 19.096234715271237 1.4963966841808656)"><path d="M1.1 -0.59 C1.27 -0.29, -0.03 1.71, 0.5 2.09 C1.03 2.46, 2.66 1.57, 4.28 1.66 C5.9 1.75, 7.59 2.21, 10.21 2.64 C12.82 3.06, 16.57 4.05, 19.97 4.19 C23.38 4.33, 27.89 4.03, 30.64 3.49 C33.38 2.95, 35.35 1.6, 36.43 0.97 C37.51 0.33, 36.7 -0.07, 37.09 -0.3 M0.22 -1.81 C0.22 -1.91, -1.78 -0.38, -0.71 0.31 C0.36 1.01, 4.84 1.88, 6.62 2.36 C8.4 2.83, 8.02 2.78, 9.99 3.19 C11.96 3.59, 14.76 4.9, 18.44 4.8 C22.12 4.7, 28.98 3.47, 32.06 2.58 C35.14 1.69, 35.71 0, 36.9 -0.53 C38.09 -1.05, 39.11 -0.35, 39.22 -0.56" stroke="#0a11d3" stroke-width="1" fill="none"></path></g></g><g stroke-linecap="round"><g transform="translate(191.2166815393632 120.76734588128596) rotate(0 18.937939444922904 1.3250748592069215)"><path d="M-0.33 -0.76 C-0.15 -0.84, 0.92 -0.08, 1.67 0.38 C2.41 0.83, 2.75 1.43, 4.15 1.96 C5.54 2.5, 7.29 3.27, 10.02 3.57 C12.75 3.88, 17.04 3.91, 20.52 3.79 C23.99 3.68, 28.21 3.49, 30.87 2.9 C33.53 2.31, 35.25 0.71, 36.48 0.28 C37.7 -0.16, 37.94 0.57, 38.21 0.28 M1.69 -2.07 C1.73 -1.52, 0.28 0.55, 1.06 1.36 C1.85 2.18, 4.98 2.28, 6.42 2.82 C7.86 3.36, 7.57 4.39, 9.71 4.61 C11.86 4.84, 15.48 4.68, 19.27 4.2 C23.05 3.71, 29.47 2.04, 32.42 1.69 C35.37 1.34, 36.16 2.31, 36.97 2.08 C37.78 1.86, 37.35 0.62, 37.26 0.33" stroke="#0a11d3" stroke-width="1" fill="none"></path></g></g><g stroke-linecap="round" transform="translate(190.54336226101577 102.13796283779595) rotate(0 18.887993042887445 3.8199544927176845)"><path d="M13.2 0.07 C16.59 -0.14, 21.6 -0.53, 25.19 -0.15 C28.79 0.22, 32.74 1.63, 34.76 2.32 C36.77 3, 37.96 3.35, 37.28 3.96 C36.6 4.56, 33.65 5.32, 30.67 5.97 C27.69 6.62, 23.25 7.88, 19.41 7.85 C15.57 7.81, 10.86 6.44, 7.64 5.79 C4.42 5.13, 1.04 4.54, 0.07 3.91 C-0.9 3.28, -0.69 2.68, 1.83 2 C4.34 1.32, 12.47 0.3, 15.14 -0.16 C17.81 -0.62, 17.82 -0.86, 17.85 -0.78 M9.53 1.33 C12.97 0.74, 20.53 -1, 24.63 -1.01 C28.74 -1.02, 31.81 0.68, 34.19 1.28 C36.57 1.87, 39.04 1.47, 38.94 2.55 C38.84 3.64, 36.31 6.82, 33.56 7.79 C30.81 8.76, 26.7 8.43, 22.45 8.37 C18.19 8.31, 11.73 8.09, 8.02 7.43 C4.31 6.77, 1.02 5.36, 0.19 4.42 C-0.65 3.47, 1.38 2.38, 3.01 1.75 C4.65 1.12, 8.67 0.65, 10 0.66 C11.34 0.66, 10.91 1.65, 11.04 1.76" stroke="none" stroke-width="0" fill="#fff"></path><path d="M10.01 0.26 C13.61 0.01, 20.02 -0.04, 24.11 0.15 C28.2 0.33, 32.34 0.82, 34.57 1.35 C36.79 1.89, 37.83 2.38, 37.47 3.34 C37.11 4.3, 35.2 6.55, 32.38 7.13 C29.57 7.71, 24.58 6.99, 20.58 6.81 C16.59 6.62, 11.81 6.29, 8.43 6.02 C5.05 5.76, 1.31 5.98, 0.31 5.2 C-0.69 4.42, 0.22 2.16, 2.44 1.35 C4.67 0.55, 11.27 0.68, 13.68 0.37 C16.09 0.06, 16.86 -0.57, 16.91 -0.52 M17.12 0.22 C20.72 0.02, 24.3 1.19, 27.58 1.58 C30.86 1.97, 35.52 2.09, 36.82 2.55 C38.11 3.02, 36.88 3.84, 35.33 4.39 C33.78 4.94, 30.65 5.57, 27.5 5.86 C24.35 6.14, 20.43 6.09, 16.43 6.09 C12.43 6.08, 6.15 6.21, 3.5 5.83 C0.84 5.46, 0.3 4.75, 0.52 3.82 C0.74 2.9, 2.19 1.14, 4.81 0.27 C7.43 -0.61, 14.51 -1.24, 16.25 -1.41 C17.98 -1.59, 15.15 -1.31, 15.22 -0.76" stroke="#0a11d3" stroke-width="1" fill="none"></path></g><g stroke-linecap="round" transform="translate(221.3628449501757 112.72971737213544) rotate(0 2.7682164374439253 3.0043622478218026)"><path d="M3.56 0.06 C4.2 0.02, 4.4 0.49, 4.79 1.04 C5.18 1.58, 6.03 2.67, 5.9 3.32 C5.78 3.97, 4.67 4.4, 4.02 4.93 C3.37 5.46, 2.46 6.29, 1.99 6.5 C1.52 6.7, 1.67 6.7, 1.19 6.17 C0.7 5.64, -0.69 4.19, -0.92 3.3 C-1.16 2.4, -0.68 1.3, -0.21 0.81 C0.27 0.32, 1.26 0.41, 1.91 0.35 C2.56 0.3, 3.46 0.48, 3.68 0.49 C3.9 0.49, 3.24 0.52, 3.23 0.37 M4.37 1.5 C4.72 1.78, 3.75 0.92, 3.9 1.4 C4.05 1.89, 5.37 3.64, 5.27 4.41 C5.16 5.18, 3.42 5.53, 3.27 6.02 C3.13 6.51, 4.62 7.51, 4.4 7.34 C4.19 7.17, 2.62 5.68, 1.97 4.99 C1.32 4.3, 0.89 3.51, 0.52 3.22 C0.15 2.93, -0.34 3.81, -0.26 3.25 C-0.18 2.7, 0.34 0.36, 1 -0.09 C1.66 -0.54, 3.07 0.6, 3.69 0.57 C4.31 0.54, 4.67 -0.35, 4.72 -0.28" stroke="none" stroke-width="0" fill="#fff"></path><path d="M1.36 0.71 C1.96 0.57, 2.8 0.25, 3.35 0.28 C3.9 0.31, 4.44 0.42, 4.67 0.91 C4.9 1.4, 4.6 2.54, 4.73 3.22 C4.86 3.91, 5.84 4.52, 5.44 5.04 C5.05 5.56, 3.19 6.31, 2.34 6.34 C1.5 6.37, 0.68 5.51, 0.38 5.22 C0.08 4.93, 0.7 5.2, 0.53 4.62 C0.35 4.05, -0.87 2.5, -0.66 1.79 C-0.44 1.07, 1.52 0.65, 1.82 0.35 C2.11 0.05, 1.11 0, 1.12 -0.01 M2.73 -1.32 C3.25 -1.56, 4.93 0.1, 5.37 0.51 C5.81 0.93, 5.52 0.59, 5.36 1.19 C5.2 1.78, 4.87 3.05, 4.41 4.06 C3.94 5.06, 3.22 7, 2.58 7.22 C1.94 7.45, 0.97 5.74, 0.56 5.4 C0.16 5.07, 0.22 5.67, 0.15 5.22 C0.08 4.76, 0.21 3.4, 0.15 2.67 C0.1 1.94, -0.33 1.46, -0.17 0.84 C-0.01 0.21, 0.79 -1, 1.1 -1.1 C1.4 -1.21, 1.19 0.17, 1.67 0.18" stroke="#0a11d3" stroke-width="1" fill="none"></path></g><g stroke-linecap="round" transform="translate(221.3628449501757 125.91885634123048) rotate(0 2.7682164374439253 3.0043622478218026)"><path d="M1.34 -0.03 C1.6 -0.25, 2.3 0.37, 2.86 0.48 C3.43 0.58, 4.35 0.32, 4.73 0.63 C5.11 0.94, 5.06 1.57, 5.15 2.33 C5.25 3.1, 5.51 4.77, 5.32 5.21 C5.13 5.66, 4.74 5.05, 4.03 5.01 C3.32 4.97, 1.85 5.14, 1.09 4.98 C0.32 4.81, -0.43 4.58, -0.55 4.02 C-0.67 3.47, -0.06 2.43, 0.37 1.64 C0.81 0.86, 1.75 -0.41, 2.05 -0.69 C2.36 -0.96, 2.37 -0.29, 2.19 -0.02 M4.25 -1.11 C4.99 -1.33, 4.36 0.13, 4.77 0.5 C5.18 0.86, 6.49 0.18, 6.7 1.08 C6.92 1.99, 6.34 5.01, 6.05 5.93 C5.77 6.85, 5.79 6.56, 4.99 6.61 C4.19 6.66, 2.12 6.66, 1.25 6.21 C0.37 5.77, -0.33 4.66, -0.28 3.93 C-0.23 3.2, 1.38 2.35, 1.53 1.84 C1.69 1.34, 0.36 0.99, 0.66 0.9 C0.95 0.81, 3.03 1.33, 3.32 1.29 C3.62 1.25, 2.39 1.05, 2.42 0.66" stroke="none" stroke-width="0" fill="#fff"></path><path d="M2.13 0.21 C2.83 -0.07, 3.43 -0.18, 3.89 -0.11 C4.35 -0.03, 4.62 -0.05, 4.91 0.65 C5.2 1.35, 5.68 3.46, 5.63 4.09 C5.58 4.73, 5.02 4.29, 4.61 4.46 C4.2 4.62, 3.83 4.87, 3.17 5.08 C2.52 5.29, 1.09 6.12, 0.69 5.72 C0.28 5.33, 0.8 3.37, 0.73 2.72 C0.66 2.06, 0.05 2.3, 0.25 1.77 C0.45 1.24, 1.69 -0.22, 1.94 -0.46 C2.18 -0.7, 1.74 0.2, 1.7 0.32 M2.54 1.24 C2.92 1.41, 4.89 1.31, 5.2 1.57 C5.51 1.84, 4.57 2.43, 4.4 2.84 C4.23 3.26, 4.23 3.8, 4.18 4.08 C4.13 4.36, 4.72 4.4, 4.09 4.53 C3.45 4.66, 0.96 5.02, 0.37 4.85 C-0.23 4.67, 0.52 4.24, 0.53 3.49 C0.53 2.74, 0.17 1.15, 0.41 0.35 C0.64 -0.45, 1.56 -1.16, 1.95 -1.33 C2.34 -1.49, 2.42 -1.14, 2.76 -0.63 C3.09 -0.12, 4.02 1.32, 3.96 1.73" stroke="#0a11d3" stroke-width="1" fill="none"></path></g><g stroke-linecap="round" transform="translate(221.3628449501757 140.2536979501491) rotate(0 2.7682164374439253 3.0043622478218026)"><path d="M3.46 -0.24 C4.09 -0.05, 5.4 0.83, 5.64 1.42 C5.89 2.01, 5.27 2.55, 4.94 3.29 C4.62 4.04, 4.02 5.29, 3.67 5.89 C3.32 6.49, 3.46 7.03, 2.83 6.87 C2.21 6.72, 0.48 5.68, -0.08 4.98 C-0.65 4.28, -0.66 3.26, -0.56 2.69 C-0.46 2.11, 0.15 1.94, 0.53 1.55 C0.91 1.16, 1.29 0.56, 1.71 0.34 C2.14 0.12, 2.72 0.37, 3.08 0.22 C3.44 0.07, 3.67 -0.61, 3.88 -0.55 M0.87 0.29 C1.21 0.04, 3.13 1.06, 3.61 1.44 C4.09 1.83, 3.23 1.99, 3.76 2.59 C4.3 3.19, 6.58 4.67, 6.81 5.06 C7.04 5.44, 5.8 4.86, 5.17 4.92 C4.53 4.97, 3.81 5.1, 3.01 5.39 C2.21 5.68, 0.95 7.06, 0.36 6.66 C-0.23 6.25, -0.6 3.76, -0.54 2.95 C-0.48 2.14, 0.07 2.36, 0.71 1.82 C1.34 1.28, 2.96 -0.13, 3.27 -0.3 C3.59 -0.47, 3.02 0.6, 2.6 0.83" stroke="none" stroke-width="0" fill="#fff"></path><path d="M1.6 0.5 C2.07 0.11, 2.76 -0.28, 3.2 -0.14 C3.64 0.01, 3.73 0.83, 4.22 1.4 C4.71 1.97, 6.19 2.61, 6.14 3.29 C6.09 3.97, 4.59 5.09, 3.92 5.48 C3.24 5.88, 2.48 5.55, 2.09 5.66 C1.7 5.77, 2.05 6.48, 1.58 6.15 C1.1 5.83, -0.58 4.42, -0.76 3.69 C-0.94 2.97, 0.18 2.43, 0.48 1.81 C0.79 1.18, 0.84 0.25, 1.09 -0.06 C1.34 -0.37, 1.9 -0.28, 2 -0.05 M4.54 0.08 C5.04 0.26, 4.96 -0.23, 4.98 0.27 C5 0.77, 4.93 2.03, 4.66 3.09 C4.39 4.15, 3.88 6.26, 3.35 6.66 C2.82 7.06, 1.91 5.63, 1.48 5.51 C1.06 5.39, 1.01 6.24, 0.8 5.94 C0.59 5.63, 0.47 4.38, 0.22 3.67 C-0.03 2.96, -0.71 2.4, -0.71 1.65 C-0.72 0.9, -0.36 -0.62, 0.2 -0.86 C0.76 -1.09, 1.87 0.29, 2.66 0.23 C3.45 0.18, 4.6 -1.04, 4.95 -1.19" stroke="#0a11d3" stroke-width="1" fill="none"></path></g><g stroke-linecap="round" transform="translate(39.76171875 376.251953125) rotate(0 44.52734375 32.513671875)"><path d="M-1.25 0.57 L89.17 1.73 L90.41 63.41 L-0.7 63.06" stroke="none" stroke-width="0" fill="#fff"></path><path d="M0.33 -0.24 C33.47 -0.39, 65.92 0.48, 88.67 1.04 M0.18 0.68 C20.33 1.51, 40.35 0.11, 88.38 0.47 M90.65 -0.66 C90.76 18.95, 89.76 42.16, 89.24 63.53 M88.26 0.03 C90.03 17.83, 89.11 35.03, 88.62 64.41 M89.29 65.23 C65.76 63.24, 41.68 65.58, 0.22 64.67 M89.49 66.01 C67.88 65.78, 47.22 64.47, 0.29 65.21 M-0.53 63.88 C1.5 53.62, 1.4 39.63, 1.94 1.47 M-0.43 65 C0.45 45.48, 0.45 24.62, 0.55 -0.48" stroke="#000000" stroke-width="1" fill="none"></path></g><g transform="translate(58.09765625 501.30078125) rotate(0 40 20)"><text x="40" y="14" font-family="Virgil, Segoe UI Emoji" font-size="16px" fill="#000000" text-anchor="middle" style="white-space: pre;" direction="ltr">Tenant 01</text><text x="40" y="34" font-family="Virgil, Segoe UI Emoji" font-size="16px" fill="#000000" text-anchor="middle" style="white-space: pre;" direction="ltr">Cluster</text></g><g stroke-linecap="round"><g transform="translate(99.99362019199862 372.887001323048) rotate(0 -10.23818364786598 -30.563377141486853)"><path d="M0 0.53 C-6.03 -21.74, -13.11 -48.05, -20.48 -60.75 M-0.29 0.87 C-4.65 -11.63, -7.3 -25.35, -18.68 -61.99" stroke="#000000" stroke-width="1" fill="none"></path></g><g transform="translate(99.99362019199862 372.887001323048) rotate(0 -10.23818364786598 -30.563377141486853)"><path d="M-0.79 -37.39 C-6.11 -45.41, -12.82 -57.48, -20.28 -61.54 M-1.08 -37.04 C-5.25 -41.86, -7.7 -47.9, -18.48 -62.79" stroke="#000000" stroke-width="1" fill="none"></path></g><g transform="translate(99.99362019199862 372.887001323048) rotate(0 -10.23818364786598 -30.563377141486853)"><path d="M-20.46 -31.52 C-18.29 -41.68, -17.45 -56, -20.28 -61.54 M-20.75 -31.18 C-20.84 -37.31, -19.22 -44.56, -18.48 -62.79" stroke="#000000" stroke-width="1" fill="none"></path></g></g><g transform="translate(31.875 112.4296875) rotate(0 43.5 30)"><text x="43.5" y="14" font-family="Virgil, Segoe UI Emoji" font-size="16px" fill="#000000" text-anchor="middle" style="white-space: pre;" direction="ltr">Any CNCF</text><text x="43.5" y="34" font-family="Virgil, Segoe UI Emoji" font-size="16px" fill="#000000" text-anchor="middle" style="white-space: pre;" direction="ltr">Conformant</text><text x="43.5" y="54" font-family="Virgil, Segoe UI Emoji" font-size="16px" fill="#000000" text-anchor="middle" style="white-space: pre;" direction="ltr">Kubernetes</text></g><g stroke-linecap="round" transform="translate(24.98046875 228.546875) rotate(0 70.0390625 160.876953125)"><path d="M0.15 -1.08 C35.93 -0.27, 71.48 1.18, 142.07 -1.74 M0.27 -0.75 C47.08 1.17, 93.69 0.18, 139.64 0.83 M141.41 -0.89 C139.07 117.37, 140.47 233.62, 139.91 321.55 M139.59 0.21 C140.43 68.45, 140.09 137.75, 139.95 321.55 M139.32 323.51 C110.22 323, 82.23 322.31, -0.86 322.39 M140.1 322.35 C90.53 321.15, 40.23 322.14, -0.82 321.35 M-0.17 321.46 C3.05 196.33, 1.39 69.55, -1.04 1.31 M0.54 321.99 C1.49 255.99, 1.55 191.49, -0.68 0.26" stroke="#000000" stroke-width="1" fill="none"></path></g><g transform="translate(44.76171875 388.765625) rotate(0 39.5 20)"><text x="39.5" y="14" font-family="Virgil, Segoe UI Emoji" font-size="16px" fill="#000000" text-anchor="middle" style="white-space: pre;" direction="ltr">worker </text><text x="39.5" y="34" font-family="Virgil, Segoe UI Emoji" font-size="16px" fill="#000000" text-anchor="middle" style="white-space: pre;" direction="ltr">nodes</text></g><g stroke-linecap="round" transform="translate(52.55859375 392.634765625) rotate(0 44.52734375 32.513671875)"><path d="M-1.88 -0.2 L90.49 1.09 L90.97 64.04 L-1 64.26" stroke="none" stroke-width="0" fill="#fff"></path><path d="M-1.54 1.16 C30.58 0.38, 60.94 -1.23, 90.69 -1.15 M-0.92 -0.18 C28.61 -0.06, 57.65 0.69, 89.01 -0.8 M87.39 -1.06 C90.95 26.9, 90.92 49.95, 87.89 65.09 M88.61 0.98 C87.97 13.91, 87.78 28.5, 88.76 65.42 M90.79 63.56 C64.2 63.53, 43.89 63.61, -0.19 63.5 M89.71 64.14 C54 65.47, 20.36 66.27, 0.12 65.54 M0.43 65.18 C0.81 44.88, -0.1 29.86, 1.17 -0.53 M-0.4 65.64 C-0.29 41.45, 0.19 17.3, -0.6 0.72" stroke="#000000" stroke-width="1" fill="none"></path></g><g transform="translate(57.55859375 405.1484375) rotate(0 39.5 20)"><text x="39.5" y="14" font-family="Virgil, Segoe UI Emoji" font-size="16px" fill="#000000" text-anchor="middle" style="white-space: pre;" direction="ltr">worker </text><text x="39.5" y="34" font-family="Virgil, Segoe UI Emoji" font-size="16px" fill="#000000" text-anchor="middle" style="white-space: pre;" direction="ltr">nodes</text></g><g stroke-linecap="round" transform="translate(65.40625 408.458984375) rotate(0 44.52734375 32.513671875)"><path d="M-1.88 0.35 L89.68 0.88 L90.63 66.38 L-0.95 63.18" stroke="none" stroke-width="0" fill="#fff"></path><path d="M1.45 1.93 C25.2 -0.99, 46.74 0.3, 88.66 -1.53 M-0.43 0.23 C23.63 -0.27, 47.23 1.05, 88.83 0.81 M87.78 1.47 C87.57 20.92, 88.69 38.64, 90.45 66.75 M88.45 -0.25 C88.56 15.76, 89.25 33.26, 88.33 65.29 M87.61 64.07 C60.29 64.91, 34.54 64.61, -0.26 64.56 M88.43 64.91 C59.48 65.83, 30.36 66.26, 0.89 64.93 M-1.21 65.71 C1.65 44.78, 1.19 20.84, 0.06 0.35 M0.01 65.82 C-0.76 39.67, -0.91 15.49, 0.75 0.04" stroke="#000000" stroke-width="1" fill="none"></path></g><g transform="translate(70.40625 420.97265625) rotate(0 39.5 20)"><text x="39.5" y="14" font-family="Virgil, Segoe UI Emoji" font-size="16px" fill="#000000" text-anchor="middle" style="white-space: pre;" direction="ltr">worker </text><text x="39.5" y="34" font-family="Virgil, Segoe UI Emoji" font-size="16px" fill="#000000" text-anchor="middle" style="white-space: pre;" direction="ltr">nodes</text></g><g stroke-linecap="round" transform="translate(223.7265625 379.83984375) rotate(0 44.52734375 32.513671875)"><path d="M-1.27 0.47 L90.47 -1.71 L88.44 66.52 L0.62 66.38" stroke="none" stroke-width="0" fill="#fff"></path><path d="M1.72 1.29 C24.04 0.77, 45.18 1.29, 87.68 0.05 M-0.54 0.93 C26.58 0.51, 51.89 0.41, 89.69 0.54 M90.37 0.82 C88.09 21.8, 89.47 47.74, 90.7 66.31 M89.53 0.36 C88.77 17.71, 88.1 34.9, 89.11 64.34 M88.47 65.25 C56.63 64.57, 27.92 66.28, 0.08 66.92 M89.04 65.34 C70.76 64.74, 52.66 64.97, 0.21 65.74 M-1.36 63.44 C-1.74 47.64, -1.03 30.67, -0.31 0.65 M0.44 64.95 C-0.43 45.98, 0.3 28.28, 0.9 -0.22" stroke="#000000" stroke-width="1" fill="none"></path></g><g transform="translate(238.5625 504.888671875) rotate(0 43.5 20)"><text x="43.5" y="14" font-family="Virgil, Segoe UI Emoji" font-size="16px" fill="#000000" text-anchor="middle" style="white-space: pre;" direction="ltr">Tenant 02</text><text x="43.5" y="34" font-family="Virgil, Segoe UI Emoji" font-size="16px" fill="#000000" text-anchor="middle" style="white-space: pre;" direction="ltr">Cluster</text></g><g stroke-linecap="round"><g transform="translate(289.43222737039184 376.474891948048) rotate(0 -11.555953557193618 -33.929013286717236)"><path d="M1.7 1.12 C-8.45 -21.06, -18.71 -45.51, -24.81 -68.98 M0.28 0.29 C-7.17 -18.16, -12.62 -36.4, -24.08 -67.69" stroke="#000000" stroke-width="1" fill="none"></path></g><g transform="translate(289.43222737039184 376.474891948048) rotate(0 -11.555953557193618 -33.929013286717236)"><path d="M-3.25 -43.46 C-11.13 -50.65, -19.49 -60.08, -24.18 -69.24 M-4.68 -44.29 C-10.82 -50.58, -14.74 -56.6, -23.45 -67.95" stroke="#000000" stroke-width="1" fill="none"></path></g><g transform="translate(289.43222737039184 376.474891948048) rotate(0 -11.555953557193618 -33.929013286717236)"><path d="M-22.58 -36.57 C-23.96 -46.22, -25.78 -57.98, -24.18 -69.24 M-24.01 -37.4 C-24.79 -45.77, -23.37 -53.69, -23.45 -67.95" stroke="#000000" stroke-width="1" fill="none"></path></g></g><g stroke-linecap="round" transform="translate(208.93359375 229.841796875) rotate(0 70.0390625 160.876953125)"><path d="M1.12 0.51 C55.71 -2.56, 108.19 -1.28, 138.53 -0.49 M0.29 -0.72 C34.63 0.25, 69.41 0.25, 139.82 0.2 M138.79 0.41 C141.31 118.76, 141.89 234.71, 139.27 322.4 M140.49 -0.4 C141.36 112.01, 140.4 224.31, 140.31 321.67 M139.73 323.59 C103.48 321.18, 66.05 319.23, 0.03 322.02 M139.67 322.18 C98.15 322.12, 57.29 321.43, 0.78 321.52 M-0.71 321.39 C0.65 246.88, 2.24 172.17, -0.13 -0.84 M-0.49 321.92 C0.12 211.67, 0.02 99.9, 0.17 0.49" stroke="#000000" stroke-width="1" fill="none"></path></g><g transform="translate(228.7265625 392.353515625) rotate(0 39.5 20)"><text x="39.5" y="14" font-family="Virgil, Segoe UI Emoji" font-size="16px" fill="#000000" text-anchor="middle" style="white-space: pre;" direction="ltr">worker </text><text x="39.5" y="34" font-family="Virgil, Segoe UI Emoji" font-size="16px" fill="#000000" text-anchor="middle" style="white-space: pre;" direction="ltr">nodes</text></g><g stroke-linecap="round" transform="translate(236.5234375 396.22265625) rotate(0 44.52734375 32.513671875)"><path d="M1.5 0.62 L90.41 0.66 L88.84 66.64 L-0.63 66.27" stroke="none" stroke-width="0" fill="#fff"></path><path d="M1.64 -1.37 C34.34 -0.32, 67.03 -0.72, 87.97 1.87 M0.19 0.64 C29.73 1.28, 58.12 0.84, 89.71 0.41 M89.5 1.65 C89.74 16.18, 87.3 34.77, 90.01 65.75 M89.74 0.06 C88.75 20.65, 89.77 40.1, 88.76 65.14 M90.42 65.11 C68.43 63.98, 44.05 66.11, -0.04 65.66 M88.88 65.23 C62.04 64.93, 34.38 65.17, -0.68 64.23 M-1.62 64.72 C0.98 49.17, 0.14 32.83, 0.88 -0.15 M-0.07 65.92 C0.24 48.1, 0.7 33.16, -0.86 -0.31" stroke="#000000" stroke-width="1" fill="none"></path></g><g transform="translate(241.5234375 408.736328125) rotate(0 39.5 20)"><text x="39.5" y="14" font-family="Virgil, Segoe UI Emoji" font-size="16px" fill="#000000" text-anchor="middle" style="white-space: pre;" direction="ltr">worker </text><text x="39.5" y="34" font-family="Virgil, Segoe UI Emoji" font-size="16px" fill="#000000" text-anchor="middle" style="white-space: pre;" direction="ltr">nodes</text></g><g stroke-linecap="round" transform="translate(249.37109375 412.046875) rotate(0 44.52734375 32.513671875)"><path d="M1.35 0.66 L88.84 1.61 L88.42 66.27 L-0.78 65.08" stroke="none" stroke-width="0" fill="#fff"></path><path d="M0.05 -0.09 C27.44 0.12, 56.91 2.48, 89.61 0.58 M0.54 0.64 C20.04 -0.37, 41.26 -0.16, 88.66 -0.92 M90.34 -0.74 C88.04 22.35, 90.16 43.56, 89.24 66.22 M88.37 0.54 C89.83 15.64, 89.21 31.64, 88.58 64.86 M90.94 63.16 C54.21 65.33, 19.25 65.69, 0.23 64.21 M89.77 64.55 C59.3 64.98, 27.29 64.42, -0.62 64.52 M0.65 64.67 C0.33 46.01, 1.41 29.24, -0.99 -1.42 M-0.22 64.39 C0.28 44.67, -0.81 22.58, 0.75 0.31" stroke="#000000" stroke-width="1" fill="none"></path></g><g transform="translate(254.37109375 424.560546875) rotate(0 39.5 20)"><text x="39.5" y="14" font-family="Virgil, Segoe UI Emoji" font-size="16px" fill="#000000" text-anchor="middle" style="white-space: pre;" direction="ltr">worker </text><text x="39.5" y="34" font-family="Virgil, Segoe UI Emoji" font-size="16px" fill="#000000" text-anchor="middle" style="white-space: pre;" direction="ltr">nodes</text></g><g stroke-linecap="round" transform="translate(475.0546875 374.80078125) rotate(0 44.52734375 32.513671875)"><path d="M-1.48 1.81 L90.97 -1.11 L89.72 66.72 L-0.61 66.25" stroke="none" stroke-width="0" fill="#fff"></path><path d="M-0.77 0.08 C19.48 -2.08, 41.33 -1.6, 88.26 0.65 M-0.53 0.15 C32.85 0.39, 67.3 0.33, 89.31 1 M88.29 -0.65 C88.57 22.67, 88.36 43.81, 90.7 64.92 M88.09 -0.77 C88.3 17.9, 88.38 36.48, 89.13 65.48 M89.83 65.74 C66.36 64.43, 43.21 64.89, -1.83 64.6 M89.33 65.01 C64.49 65.34, 39.97 66.77, -0.88 64.18 M-1.85 64.82 C0.37 50.08, -1.35 37.92, -1.39 0.25 M0.46 64.96 C0.24 42.41, -1.18 20.03, -0.8 -0.9" stroke="#000000" stroke-width="1" fill="none"></path></g><g transform="translate(496.390625 499.849609375) rotate(0 37 20)"><text x="37" y="14" font-family="Virgil, Segoe UI Emoji" font-size="16px" fill="#000000" text-anchor="middle" style="white-space: pre;" direction="ltr">Tenant X</text><text x="37" y="34" font-family="Virgil, Segoe UI Emoji" font-size="16px" fill="#000000" text-anchor="middle" style="white-space: pre;" direction="ltr">Cluster</text></g><g stroke-linecap="round"><g transform="translate(539.2791580974404 371.435829448048) rotate(0 -9.103510388787868 -31.935940871480852)"><path d="M-0.26 -1.38 C-4.77 -25.2, -14.31 -47.96, -16.72 -62.69 M-0.36 0.16 C-3.75 -17.44, -9.35 -34.09, -17.95 -64.03" stroke="#000000" stroke-width="1" fill="none"></path></g><g transform="translate(539.2791580974404 371.435829448048) rotate(0 -9.103510388787868 -31.935940871480852)"><path d="M-0.44 -41.24 C-4.95 -49.9, -14.34 -57.51, -16.49 -62.53 M-0.54 -39.7 C-4.03 -46.35, -9.51 -52.06, -17.72 -63.87" stroke="#000000" stroke-width="1" fill="none"></path></g><g transform="translate(539.2791580974404 371.435829448048) rotate(0 -9.103510388787868 -31.935940871480852)"><path d="M-20.13 -35.48 C-17.16 -46.33, -19.09 -56.12, -16.49 -62.53 M-20.23 -33.93 C-18.3 -42.19, -18.4 -49.47, -17.72 -63.87" stroke="#000000" stroke-width="1" fill="none"></path></g></g><g stroke-linecap="round" transform="translate(460.2734375 227.095703125) rotate(0 70.0390625 160.876953125)"><path d="M-1.38 1.86 C35.75 -0.61, 73.94 1.64, 141.58 -0.53 M0.16 0.88 C34.7 0.76, 70.21 0.73, 140.24 -0.36 M141.25 -0.55 C140.63 85.31, 139.27 168.02, 140.31 320.82 M139.92 -0.55 C138.52 65.49, 138.67 130.59, 139.61 322.26 M138.83 322.43 C91.83 320.32, 44.74 321.73, 1.05 323.72 M139.52 322.4 C95.13 321.28, 47.61 321.4, 0.14 320.96 M-0.29 320.87 C1.61 254.02, 0.41 188.82, 0.54 0.37 M-0.18 321.11 C-0.04 209.97, -0.47 98.78, 0.63 0.67" stroke="#000000" stroke-width="1" fill="none"></path></g><g transform="translate(480.0546875 387.314453125) rotate(0 39.5 20)"><text x="39.5" y="14" font-family="Virgil, Segoe UI Emoji" font-size="16px" fill="#000000" text-anchor="middle" style="white-space: pre;" direction="ltr">worker </text><text x="39.5" y="34" font-family="Virgil, Segoe UI Emoji" font-size="16px" fill="#000000" text-anchor="middle" style="white-space: pre;" direction="ltr">nodes</text></g><g stroke-linecap="round" transform="translate(487.8515625 391.18359375) rotate(0 44.52734375 32.513671875)"><path d="M1.69 -0.61 L90.27 1.22 L89.29 64.76 L0.33 65.9" stroke="none" stroke-width="0" fill="#fff"></path><path d="M-0.89 -0.79 C26.22 0.63, 52.62 -1.36, 88 0.31 M0.09 0.26 C24.52 -0.56, 47.21 -1.15, 88.67 -0.32 M90.89 1.65 C89.49 17.18, 89.94 33.87, 87.12 63.49 M89.29 0.08 C89.36 13.54, 88.24 28.58, 89.44 65.38 M88.27 63.2 C59.41 64.91, 31.67 67.29, 0.54 64.99 M89.92 64.14 C58.87 64.84, 30.52 64.81, -0.92 64.92 M1.97 63.64 C0.38 44.91, 0.91 23.57, 0.91 -0.14 M-0.28 64.23 C-0.73 41.6, 1.08 20.61, -0.56 0.33" stroke="#000000" stroke-width="1" fill="none"></path></g><g transform="translate(492.8515625 403.697265625) rotate(0 39.5 20)"><text x="39.5" y="14" font-family="Virgil, Segoe UI Emoji" font-size="16px" fill="#000000" text-anchor="middle" style="white-space: pre;" direction="ltr">worker </text><text x="39.5" y="34" font-family="Virgil, Segoe UI Emoji" font-size="16px" fill="#000000" text-anchor="middle" style="white-space: pre;" direction="ltr">nodes</text></g><g stroke-linecap="round" transform="translate(500.69921875 407.0078125) rotate(0 44.52734375 32.513671875)"><path d="M1.22 1.22 L89.29 -0.27 L89.39 65.9 L-0.95 63.92" stroke="none" stroke-width="0" fill="#fff"></path><path d="M0.65 1.46 C36.52 -0.18, 68.98 0.66, 88.34 0.32 M1 0.23 C34.75 -0.59, 68.79 -0.55, 88.76 0.84 M88.94 -0.43 C89.99 15.57, 87.72 32.31, 87.34 64.58 M89.51 -0.39 C88.54 15.14, 89.6 29.18, 89.34 64.4 M88.63 64.61 C60.39 66.18, 30.17 64.17, 0.59 63.9 M88.21 64.26 C56.75 63.45, 23.24 64.14, 0.23 64.82 M0.25 65.9 C0.13 50.17, 0.27 34.1, 0.98 -0.52 M-0.9 64.29 C1.09 52.51, -0.37 38.41, 0.85 -0.31" stroke="#000000" stroke-width="1" fill="none"></path></g><g transform="translate(505.69921875 419.521484375) rotate(0 39.5 20)"><text x="39.5" y="14" font-family="Virgil, Segoe UI Emoji" font-size="16px" fill="#000000" text-anchor="middle" style="white-space: pre;" direction="ltr">worker </text><text x="39.5" y="34" font-family="Virgil, Segoe UI Emoji" font-size="16px" fill="#000000" text-anchor="middle" style="white-space: pre;" direction="ltr">nodes</text></g><g stroke-linecap="round"><g transform="translate(375.4609375 269.265625) rotate(0 32.13564267940819 -1.127067035340957)"><path d="M1.72 -1.08 C16.44 -1.82, 33.36 -0.3, 62.55 -1.3" stroke="#000000" stroke-width="1.5" fill="none" stroke-dasharray="1.5 7"></path></g></g></svg>